<mxfile host="app.diagrams.net" agent="Mozilla/5.0 (Macintosh; Intel Mac OS X 10_15_7) AppleWebKit/537.36 (KHTML, like Gecko) Chrome/129.0.0.0 Safari/537.36 Edg/129.0.0.0" version="26.0.5">
  <diagram name="Page-1" id="tzCXrWUu543_5iKeOueY">
    <mxGraphModel dx="6160" dy="5231" grid="1" gridSize="10" guides="1" tooltips="1" connect="1" arrows="1" fold="1" page="1" pageScale="1" pageWidth="1654" pageHeight="1169" math="0" shadow="0">
      <root>
        <mxCell id="0" />
        <mxCell id="1" parent="0" />
        <UserObject label="" plantUmlData="{&#xa;  &quot;data&quot;: &quot;@startuml School Management System - Class Diagram\n\n&#39; Layout settings\nskinparam Linetype ortho\nskinparam classAttributeIconSize 0\nhide circle\n\n&#39; Style settings\nskinparam class {\n    color black\n    BackgroundColor white\n    BorderColor black\n    ArrowColor black\n}\n\nclass Subject {\n    # name\n    # code\n    # description\n\n    + addSubject()\n    + updateSubject()\n    + deleteSubject()\n}\n\nabstract class User {\n    # id\n    # firstName\n    # lastName\n    # email\n    # phone\n    # address\n    # schoolId\n    # lastLogin\n    # isActive\n    # username\n    # password\n    # fingerprint\n    \n    + login()\n    + logout()\n    + verifyFingerprint()\n    + updateProfile()\n    + changePassword()\n}\n\nclass Student {\n    - studentId\n    - enrollmentDate\n    \n    + submitAssessment()\n    + viewAssessments()\n    + viewExams()\n    + applyForRecorrection()\n}\n\nclass Teacher {\n    # teacherId\n    # joiningDate\n    # qualification\n    \n    + manageAssessments()\n    + manageExams()\n    + gradeSubmissions()\n    + generateReports()\n}\n\nclass SectionalHead {\n    # sectionHeadId\n    # sectionId\n    \n    + manageTeachers()\n    + manageTimeTable()\n    + approveLeaveRequests()\n}\n\nclass Principal {\n    # principalId\n    # appointmentDate\n    \n    + broadcastAnnouncement()\n    + reviewReports()\n    + approveEvents()\n    + manageStaff()\n    + reviewPerformance()\n    + generateSchoolReport()\n    + generateStaffReport()\n    + generatePerformanceReport()\n}\n\nclass Admin {\n    - adminId\n    - accessLevel\n    \n    + manageUsers()\n    + configureSystem()\n    + backupData()\n    + generateSystemReports()\n    + managePermissions()\n    + createAdminAccount()\n}\n\nclass Class {\n    - id\n    - name\n    - grade\n    - section\n    \n    + addClass()\n    + updateClass()\n    + deleteClass()\n    + assignTeacher()\n    + assignStudents()\n}\n\nclass Assessment {\n    - id\n    - title\n    - description\n    - dueDate\n    - totalMarks\n    - subject\n    - assignedTo\n    \n    + createAssessment()\n    + updateAssessment()\n    + deleteAssessment()\n    + assignToStudents()\n}\n\nclass Exam {\n    - id\n    - year\n    - term\n    - date\n    - duration\n    - averageMarks\n    \n    + createExam()\n    + updateExam()\n    + deleteExam()\n    + assignToClasses()\n    + generateResults()\n}\n\nclass ExamResult {\n    - id\n    - marks\n    - grade\n    - remarks\n    - date\n    \n    + calculateGrade()\n    + generateReport()\n    + updateResult()\n    + deleteResult()\n    + publishResult()\n}\n\nclass TimeTable {\n    - id\n    - validFrom\n    - validTo\n    \n    + createSchedule()\n    + updateSchedule()\n    + deleteSchedule()\n    + validateSchedule()\n}\n\nclass Session {\n    - id\n    - startTime\n    - endTime\n    - day\n    \n    + createSession()\n    + updateSession()\n    + deleteSession()\n    + validateTime()\n}\n\nclass Attendance {\n    - id\n    - date\n    - status\n    - sessionId\n    - remarks\n    \n    + markAttendance()\n    + updateAttendance()\n    + calculateAttendancePercentage()\n    + generateAttendanceReport()\n}\n\nclass Log {\n    # id\n    # action\n    # timestamp\n    # details\n    # ipAddress\n}\n\n&#39; Inheritance relationships\nUser &lt;|-- Student\nUser &lt;|-- Teacher\nUser &lt;|-- Principal\nUser &lt;|-- Admin\nTeacher &lt;|-- SectionalHead\nSectionalHead &lt;|-- Principal\nPrincipal &lt;|-- Admin\n\n&#39; Compositions relationships\nUser \&quot;1\&quot; *-- \&quot;✱\&quot; Log\nTeacher \&quot;1\&quot; *-- \&quot;✱\&quot; Subject\nTimeTable \&quot;1\&quot; *-- \&quot;✱\&quot; Session\nExam \&quot;1\&quot; *-- \&quot;✱\&quot; ExamResult\n\n&#39; Aggregations relationships\nSession \&quot;1\&quot; o-- \&quot;1\&quot; Subject : has\nAssessment \&quot;1\&quot; o-- \&quot;1\&quot; Subject : has\nExam \&quot;1\&quot; o-- \&quot;1\&quot; Subject : has\nStudent \&quot;1\&quot; o-- \&quot;✱\&quot; Attendance\nStudent \&quot;1\&quot; o-- \&quot;✱\&quot; Subject : studies\nStudent \&quot;1\&quot; o-- \&quot;✱\&quot; ExamResult : has\nTeacher \&quot;1\&quot; o-- \&quot;✱\&quot; Subject : teaches\nTeacher \&quot;1\&quot; o-- \&quot;✱\&quot; ExamResult : evaluates\nTeacher \&quot;1\&quot; o-- \&quot;✱\&quot; Attendance : marks\nClass \&quot;*\&quot; -- \&quot;✱\&quot; Teacher\nClass \&quot;1\&quot; o-- \&quot;✱\&quot; Student\n\n&#39; Assosiation relationships\nStudent \&quot;✱\&quot; -- \&quot;✱\&quot; Assessment : submits\nStudent \&quot;✱\&quot; -- \&quot;✱\&quot; Exam : takes\nStudent \&quot;✱\&quot; -- \&quot;1\&quot; TimeTable : follows\nTeacher \&quot;1..✱\&quot; -- \&quot;✱\&quot; Student : teaches\nTeacher \&quot;✱\&quot; -- \&quot;✱\&quot; TimeTable : schedules\nTeacher \&quot;1\&quot; -- \&quot;✱\&quot; Assessment : creates\nTeacher \&quot;1\&quot; -- \&quot;✱\&quot; Session : teaches\nTeacher \&quot;1\&quot; -- \&quot;✱\&quot; Exam : conducts\nSectionalHead \&quot;1\&quot; -- \&quot;✱\&quot; Teacher : supervises\nSectionalHead \&quot;1\&quot; -- \&quot;✱\&quot; TimeTable : manages\nPrincipal \&quot;1\&quot; -- \&quot;✱\&quot; SectionalHead : manages\nAdmin \&quot;1\&quot; -- \&quot;✱\&quot; User : manages\nExam \&quot;✱\&quot; -- \&quot;✱\&quot; Class : assignedTo\nTimeTable \&quot;1\&quot; -- \&quot;1\&quot; Class : assignedTo\n\n@enduml\n&quot;,&#xa;  &quot;format&quot;: &quot;svg&quot;&#xa;}" id="SV2qkA1Qufj8YoVaOiL8-1">
          <mxCell style="shape=image;noLabel=1;verticalAlign=top;aspect=fixed;imageAspect=0;image=data:image/svg+xml,PD94bWwgdmVyc2lvbj0iMS4wIiBlbmNvZGluZz0idXMtYXNjaWkiIHN0YW5kYWxvbmU9Im5vIj8+PHN2ZyB4bWxucz0iaHR0cDovL3d3dy53My5vcmcvMjAwMC9zdmciIHhtbG5zOnhsaW5rPSJodHRwOi8vd3d3LnczLm9yZy8xOTk5L3hsaW5rIiBjb250ZW50U3R5bGVUeXBlPSJ0ZXh0L2NzcyIgaGVpZ2h0PSIyMTIycHgiIHByZXNlcnZlQXNwZWN0UmF0aW89Im5vbmUiIHN0eWxlPSJ3aWR0aDoxMzQ2cHg7aGVpZ2h0OjIxMjJweDtiYWNrZ3JvdW5kOiNGRkZGRkY7IiB2ZXJzaW9uPSIxLjEiIHZpZXdCb3g9IjAgMCAxMzQ2IDIxMjIiIHdpZHRoPSIxMzQ2cHgiIHpvb21BbmRQYW49Im1hZ25pZnkiPjxkZWZzLz48Zz48IS0tY2xhc3MgU3ViamVjdC0tPjxnIGlkPSJlbGVtX1N1YmplY3QiPjxyZWN0IGNvZGVMaW5lPSIxNCIgZmlsbD0iI0ZGRkZGRiIgaGVpZ2h0PSIxMzAuODkwNiIgaWQ9IlN1YmplY3QiIHJ4PSIyLjUiIHJ5PSIyLjUiIHN0eWxlPSJzdHJva2U6IzAwMDAwMDtzdHJva2Utd2lkdGg6MC41OyIgd2lkdGg9IjEyNiIgeD0iMzYzIiB5PSIxNzI2LjUiLz48dGV4dCBmaWxsPSIjMDAwMDAwIiBmb250LWZhbWlseT0ic2Fucy1zZXJpZiIgZm9udC1zaXplPSIxNCIgbGVuZ3RoQWRqdXN0PSJzcGFjaW5nIiB0ZXh0TGVuZ3RoPSI0OSIgeD0iNDAxLjUiIHk9IjE3NDQuNzM0NCI+U3ViamVjdDwvdGV4dD48bGluZSBzdHlsZT0ic3Ryb2tlOiMwMDAwMDA7c3Ryb2tlLXdpZHRoOjAuNTsiIHgxPSIzNjQiIHgyPSI0ODgiIHkxPSIxNzUxLjQ4NDQiIHkyPSIxNzUxLjQ4NDQiLz48dGV4dCBmaWxsPSIjMDAwMDAwIiBmb250LWZhbWlseT0ic2Fucy1zZXJpZiIgZm9udC1zaXplPSIxNCIgbGVuZ3RoQWRqdXN0PSJzcGFjaW5nIiB0ZXh0TGVuZ3RoPSIzNiIgeD0iMzY5IiB5PSIxNzY4LjcxODgiPiNuYW1lPC90ZXh0Pjx0ZXh0IGZpbGw9IiMwMDAwMDAiIGZvbnQtZmFtaWx5PSJzYW5zLXNlcmlmIiBmb250LXNpemU9IjE0IiBsZW5ndGhBZGp1c3Q9InNwYWNpbmciIHRleHRMZW5ndGg9IjM1IiB4PSIzNjkiIHk9IjE3ODMuNzAzMSI+I2NvZGU8L3RleHQ+PHRleHQgZmlsbD0iIzAwMDAwMCIgZm9udC1mYW1pbHk9InNhbnMtc2VyaWYiIGZvbnQtc2l6ZT0iMTQiIGxlbmd0aEFkanVzdD0ic3BhY2luZyIgdGV4dExlbmd0aD0iODQiIHg9IjM2OSIgeT0iMTc5OC42ODc1Ij4jZGVzY3JpcHRpb248L3RleHQ+PGxpbmUgc3R5bGU9InN0cm9rZTojMDAwMDAwO3N0cm9rZS13aWR0aDowLjU7IiB4MT0iMzY0IiB4Mj0iNDg4IiB5MT0iMTgwNC40Mzc1IiB5Mj0iMTgwNC40Mzc1Ii8+PHRleHQgZmlsbD0iIzAwMDAwMCIgZm9udC1mYW1pbHk9InNhbnMtc2VyaWYiIGZvbnQtc2l6ZT0iMTQiIGxlbmd0aEFkanVzdD0ic3BhY2luZyIgdGV4dExlbmd0aD0iOTMiIHg9IjM2OSIgeT0iMTgyMS42NzE5Ij4rYWRkU3ViamVjdCgpPC90ZXh0Pjx0ZXh0IGZpbGw9IiMwMDAwMDAiIGZvbnQtZmFtaWx5PSJzYW5zLXNlcmlmIiBmb250LXNpemU9IjE0IiBsZW5ndGhBZGp1c3Q9InNwYWNpbmciIHRleHRMZW5ndGg9IjExNCIgeD0iMzY5IiB5PSIxODM2LjY1NjMiPit1cGRhdGVTdWJqZWN0KCk8L3RleHQ+PHRleHQgZmlsbD0iIzAwMDAwMCIgZm9udC1mYW1pbHk9InNhbnMtc2VyaWYiIGZvbnQtc2l6ZT0iMTQiIGxlbmd0aEFkanVzdD0ic3BhY2luZyIgdGV4dExlbmd0aD0iMTE0IiB4PSIzNjkiIHk9IjE4NTEuNjQwNiI+K2RlbGV0ZVN1YmplY3QoKTwvdGV4dD48L2c+PCEtLWNsYXNzIFVzZXItLT48ZyBpZD0iZWxlbV9Vc2VyIj48cmVjdCBjb2RlTGluZT0iMjQiIGZpbGw9IiNGRkZGRkYiIGhlaWdodD0iMjk1LjcxODgiIGlkPSJVc2VyIiByeD0iMi41IiByeT0iMi41IiBzdHlsZT0ic3Ryb2tlOiMwMDAwMDA7c3Ryb2tlLXdpZHRoOjAuNTsiIHdpZHRoPSIxNTQiIHg9Ijc5MyIgeT0iMTY0NCIvPjx0ZXh0IGZpbGw9IiMwMDAwMDAiIGZvbnQtZmFtaWx5PSJzYW5zLXNlcmlmIiBmb250LXNpemU9IjE0IiBmb250LXN0eWxlPSJpdGFsaWMiIGxlbmd0aEFkanVzdD0ic3BhY2luZyIgdGV4dExlbmd0aD0iMjgiIHg9Ijg1NiIgeT0iMTY2Mi4yMzQ0Ij5Vc2VyPC90ZXh0PjxsaW5lIHN0eWxlPSJzdHJva2U6IzAwMDAwMDtzdHJva2Utd2lkdGg6MC41OyIgeDE9Ijc5NCIgeDI9Ijk0NiIgeTE9IjE2NjguOTg0NCIgeTI9IjE2NjguOTg0NCIvPjx0ZXh0IGZpbGw9IiMwMDAwMDAiIGZvbnQtZmFtaWx5PSJzYW5zLXNlcmlmIiBmb250LXNpemU9IjE0IiBsZW5ndGhBZGp1c3Q9InNwYWNpbmciIHRleHRMZW5ndGg9IjIxIiB4PSI3OTkiIHk9IjE2ODYuMjE4OCI+I2lkPC90ZXh0Pjx0ZXh0IGZpbGw9IiMwMDAwMDAiIGZvbnQtZmFtaWx5PSJzYW5zLXNlcmlmIiBmb250LXNpemU9IjE0IiBsZW5ndGhBZGp1c3Q9InNwYWNpbmciIHRleHRMZW5ndGg9IjcxIiB4PSI3OTkiIHk9IjE3MDEuMjAzMSI+I2ZpcnN0TmFtZTwvdGV4dD48dGV4dCBmaWxsPSIjMDAwMDAwIiBmb250LWZhbWlseT0ic2Fucy1zZXJpZiIgZm9udC1zaXplPSIxNCIgbGVuZ3RoQWRqdXN0PSJzcGFjaW5nIiB0ZXh0TGVuZ3RoPSI2NCIgeD0iNzk5IiB5PSIxNzE2LjE4NzUiPiNsYXN0TmFtZTwvdGV4dD48dGV4dCBmaWxsPSIjMDAwMDAwIiBmb250LWZhbWlseT0ic2Fucy1zZXJpZiIgZm9udC1zaXplPSIxNCIgbGVuZ3RoQWRqdXN0PSJzcGFjaW5nIiB0ZXh0TGVuZ3RoPSI0MyIgeD0iNzk5IiB5PSIxNzMxLjE3MTkiPiNlbWFpbDwvdGV4dD48dGV4dCBmaWxsPSIjMDAwMDAwIiBmb250LWZhbWlseT0ic2Fucy1zZXJpZiIgZm9udC1zaXplPSIxNCIgbGVuZ3RoQWRqdXN0PSJzcGFjaW5nIiB0ZXh0TGVuZ3RoPSI0MiIgeD0iNzk5IiB5PSIxNzQ2LjE1NjMiPiNwaG9uZTwvdGV4dD48dGV4dCBmaWxsPSIjMDAwMDAwIiBmb250LWZhbWlseT0ic2Fucy1zZXJpZiIgZm9udC1zaXplPSIxNCIgbGVuZ3RoQWRqdXN0PSJzcGFjaW5nIiB0ZXh0TGVuZ3RoPSI1NiIgeD0iNzk5IiB5PSIxNzYxLjE0MDYiPiNhZGRyZXNzPC90ZXh0Pjx0ZXh0IGZpbGw9IiMwMDAwMDAiIGZvbnQtZmFtaWx5PSJzYW5zLXNlcmlmIiBmb250LXNpemU9IjE0IiBsZW5ndGhBZGp1c3Q9InNwYWNpbmciIHRleHRMZW5ndGg9IjYzIiB4PSI3OTkiIHk9IjE3NzYuMTI1Ij4jc2Nob29sSWQ8L3RleHQ+PHRleHQgZmlsbD0iIzAwMDAwMCIgZm9udC1mYW1pbHk9InNhbnMtc2VyaWYiIGZvbnQtc2l6ZT0iMTQiIGxlbmd0aEFkanVzdD0ic3BhY2luZyIgdGV4dExlbmd0aD0iNzAiIHg9Ijc5OSIgeT0iMTc5MS4xMDk0Ij4jbGFzdExvZ2luPC90ZXh0Pjx0ZXh0IGZpbGw9IiMwMDAwMDAiIGZvbnQtZmFtaWx5PSJzYW5zLXNlcmlmIiBmb250LXNpemU9IjE0IiBsZW5ndGhBZGp1c3Q9InNwYWNpbmciIHRleHRMZW5ndGg9IjYzIiB4PSI3OTkiIHk9IjE4MDYuMDkzOCI+I2lzQWN0aXZlPC90ZXh0Pjx0ZXh0IGZpbGw9IiMwMDAwMDAiIGZvbnQtZmFtaWx5PSJzYW5zLXNlcmlmIiBmb250LXNpemU9IjE0IiBsZW5ndGhBZGp1c3Q9InNwYWNpbmciIHRleHRMZW5ndGg9IjY0IiB4PSI3OTkiIHk9IjE4MjEuMDc4MSI+I3VzZXJuYW1lPC90ZXh0Pjx0ZXh0IGZpbGw9IiMwMDAwMDAiIGZvbnQtZmFtaWx5PSJzYW5zLXNlcmlmIiBmb250LXNpemU9IjE0IiBsZW5ndGhBZGp1c3Q9InNwYWNpbmciIHRleHRMZW5ndGg9IjY0IiB4PSI3OTkiIHk9IjE4MzYuMDYyNSI+I3Bhc3N3b3JkPC90ZXh0Pjx0ZXh0IGZpbGw9IiMwMDAwMDAiIGZvbnQtZmFtaWx5PSJzYW5zLXNlcmlmIiBmb250LXNpemU9IjE0IiBsZW5ndGhBZGp1c3Q9InNwYWNpbmciIHRleHRMZW5ndGg9Ijg0IiB4PSI3OTkiIHk9IjE4NTEuMDQ2OSI+I2ZpbmdlcnByaW50PC90ZXh0PjxsaW5lIHN0eWxlPSJzdHJva2U6IzAwMDAwMDtzdHJva2Utd2lkdGg6MC41OyIgeDE9Ijc5NCIgeDI9Ijk0NiIgeTE9IjE4NTYuNzk2OSIgeTI9IjE4NTYuNzk2OSIvPjx0ZXh0IGZpbGw9IiMwMDAwMDAiIGZvbnQtZmFtaWx5PSJzYW5zLXNlcmlmIiBmb250LXNpemU9IjE0IiBsZW5ndGhBZGp1c3Q9InNwYWNpbmciIHRleHRMZW5ndGg9IjU4IiB4PSI3OTkiIHk9IjE4NzQuMDMxMyI+K2xvZ2luKCk8L3RleHQ+PHRleHQgZmlsbD0iIzAwMDAwMCIgZm9udC1mYW1pbHk9InNhbnMtc2VyaWYiIGZvbnQtc2l6ZT0iMTQiIGxlbmd0aEFkanVzdD0ic3BhY2luZyIgdGV4dExlbmd0aD0iNjUiIHg9Ijc5OSIgeT0iMTg4OS4wMTU2Ij4rbG9nb3V0KCk8L3RleHQ+PHRleHQgZmlsbD0iIzAwMDAwMCIgZm9udC1mYW1pbHk9InNhbnMtc2VyaWYiIGZvbnQtc2l6ZT0iMTQiIGxlbmd0aEFkanVzdD0ic3BhY2luZyIgdGV4dExlbmd0aD0iMTQyIiB4PSI3OTkiIHk9IjE5MDQiPit2ZXJpZnlGaW5nZXJwcmludCgpPC90ZXh0Pjx0ZXh0IGZpbGw9IiMwMDAwMDAiIGZvbnQtZmFtaWx5PSJzYW5zLXNlcmlmIiBmb250LXNpemU9IjE0IiBsZW5ndGhBZGp1c3Q9InNwYWNpbmciIHRleHRMZW5ndGg9IjExNCIgeD0iNzk5IiB5PSIxOTE4Ljk4NDQiPit1cGRhdGVQcm9maWxlKCk8L3RleHQ+PHRleHQgZmlsbD0iIzAwMDAwMCIgZm9udC1mYW1pbHk9InNhbnMtc2VyaWYiIGZvbnQtc2l6ZT0iMTQiIGxlbmd0aEFkanVzdD0ic3BhY2luZyIgdGV4dExlbmd0aD0iMTIyIiB4PSI3OTkiIHk9IjE5MzMuOTY4OCI+K2NoYW5nZVBhc3N3b3JkKCk8L3RleHQ+PC9nPjwhLS1jbGFzcyBTdHVkZW50LS0+PGcgaWQ9ImVsZW1fU3R1ZGVudCI+PHJlY3QgY29kZUxpbmU9IjQ1IiBmaWxsPSIjRkZGRkZGIiBoZWlnaHQ9IjEzMC44OTA2IiBpZD0iU3R1ZGVudCIgcng9IjIuNSIgcnk9IjIuNSIgc3R5bGU9InN0cm9rZTojMDAwMDAwO3N0cm9rZS13aWR0aDowLjU7IiB3aWR0aD0iMTc1IiB4PSI1ODguNSIgeT0iNyIvPjx0ZXh0IGZpbGw9IiMwMDAwMDAiIGZvbnQtZmFtaWx5PSJzYW5zLXNlcmlmIiBmb250LXNpemU9IjE0IiBsZW5ndGhBZGp1c3Q9InNwYWNpbmciIHRleHRMZW5ndGg9IjQ5IiB4PSI2NTEuNSIgeT0iMjUuMjM0NCI+U3R1ZGVudDwvdGV4dD48bGluZSBzdHlsZT0ic3Ryb2tlOiMwMDAwMDA7c3Ryb2tlLXdpZHRoOjAuNTsiIHgxPSI1ODkuNSIgeDI9Ijc2Mi41IiB5MT0iMzEuOTg0NCIgeTI9IjMxLjk4NDQiLz48dGV4dCBmaWxsPSIjMDAwMDAwIiBmb250LWZhbWlseT0ic2Fucy1zZXJpZiIgZm9udC1zaXplPSIxNCIgbGVuZ3RoQWRqdXN0PSJzcGFjaW5nIiB0ZXh0TGVuZ3RoPSI3MCIgeD0iNTk0LjUiIHk9IjQ5LjIxODgiPi1zdHVkZW50SWQ8L3RleHQ+PHRleHQgZmlsbD0iIzAwMDAwMCIgZm9udC1mYW1pbHk9InNhbnMtc2VyaWYiIGZvbnQtc2l6ZT0iMTQiIGxlbmd0aEFkanVzdD0ic3BhY2luZyIgdGV4dExlbmd0aD0iMTA2IiB4PSI1OTQuNSIgeT0iNjQuMjAzMSI+LWVucm9sbG1lbnREYXRlPC90ZXh0PjxsaW5lIHN0eWxlPSJzdHJva2U6IzAwMDAwMDtzdHJva2Utd2lkdGg6MC41OyIgeDE9IjU4OS41IiB4Mj0iNzYyLjUiIHkxPSI2OS45NTMxIiB5Mj0iNjkuOTUzMSIvPjx0ZXh0IGZpbGw9IiMwMDAwMDAiIGZvbnQtZmFtaWx5PSJzYW5zLXNlcmlmIiBmb250LXNpemU9IjE0IiBsZW5ndGhBZGp1c3Q9InNwYWNpbmciIHRleHRMZW5ndGg9IjEzNyIgeD0iNTk0LjUiIHk9Ijg3LjE4NzUiPitzdWJtaXRBc3Nlc3NtZW50KCk8L3RleHQ+PHRleHQgZmlsbD0iIzAwMDAwMCIgZm9udC1mYW1pbHk9InNhbnMtc2VyaWYiIGZvbnQtc2l6ZT0iMTQiIGxlbmd0aEFkanVzdD0ic3BhY2luZyIgdGV4dExlbmd0aD0iMTMwIiB4PSI1OTQuNSIgeT0iMTAyLjE3MTkiPit2aWV3QXNzZXNzbWVudHMoKTwvdGV4dD48dGV4dCBmaWxsPSIjMDAwMDAwIiBmb250LWZhbWlseT0ic2Fucy1zZXJpZiIgZm9udC1zaXplPSIxNCIgbGVuZ3RoQWRqdXN0PSJzcGFjaW5nIiB0ZXh0TGVuZ3RoPSI4OCIgeD0iNTk0LjUiIHk9IjExNy4xNTYzIj4rdmlld0V4YW1zKCk8L3RleHQ+PHRleHQgZmlsbD0iIzAwMDAwMCIgZm9udC1mYW1pbHk9InNhbnMtc2VyaWYiIGZvbnQtc2l6ZT0iMTQiIGxlbmd0aEFkanVzdD0ic3BhY2luZyIgdGV4dExlbmd0aD0iMTYzIiB4PSI1OTQuNSIgeT0iMTMyLjE0MDYiPithcHBseUZvclJlY29ycmVjdGlvbigpPC90ZXh0PjwvZz48IS0tY2xhc3MgVGVhY2hlci0tPjxnIGlkPSJlbGVtX1RlYWNoZXIiPjxyZWN0IGNvZGVMaW5lPSI1NSIgZmlsbD0iI0ZGRkZGRiIgaGVpZ2h0PSIxNDUuODc1IiBpZD0iVGVhY2hlciIgcng9IjIuNSIgcnk9IjIuNSIgc3R5bGU9InN0cm9rZTojMDAwMDAwO3N0cm9rZS13aWR0aDowLjU7IiB3aWR0aD0iMTU2IiB4PSI1ODkiIHk9IjcwMCIvPjx0ZXh0IGZpbGw9IiMwMDAwMDAiIGZvbnQtZmFtaWx5PSJzYW5zLXNlcmlmIiBmb250LXNpemU9IjE0IiBsZW5ndGhBZGp1c3Q9InNwYWNpbmciIHRleHRMZW5ndGg9IjQ5IiB4PSI2NDIuNSIgeT0iNzE4LjIzNDQiPlRlYWNoZXI8L3RleHQ+PGxpbmUgc3R5bGU9InN0cm9rZTojMDAwMDAwO3N0cm9rZS13aWR0aDowLjU7IiB4MT0iNTkwIiB4Mj0iNzQ0IiB5MT0iNzI0Ljk4NDQiIHkyPSI3MjQuOTg0NCIvPjx0ZXh0IGZpbGw9IiMwMDAwMDAiIGZvbnQtZmFtaWx5PSJzYW5zLXNlcmlmIiBmb250LXNpemU9IjE0IiBsZW5ndGhBZGp1c3Q9InNwYWNpbmciIHRleHRMZW5ndGg9IjcwIiB4PSI1OTUiIHk9Ijc0Mi4yMTg4Ij4jdGVhY2hlcklkPC90ZXh0Pjx0ZXh0IGZpbGw9IiMwMDAwMDAiIGZvbnQtZmFtaWx5PSJzYW5zLXNlcmlmIiBmb250LXNpemU9IjE0IiBsZW5ndGhBZGp1c3Q9InNwYWNpbmciIHRleHRMZW5ndGg9Ijg0IiB4PSI1OTUiIHk9Ijc1Ny4yMDMxIj4jam9pbmluZ0RhdGU8L3RleHQ+PHRleHQgZmlsbD0iIzAwMDAwMCIgZm9udC1mYW1pbHk9InNhbnMtc2VyaWYiIGZvbnQtc2l6ZT0iMTQiIGxlbmd0aEFkanVzdD0ic3BhY2luZyIgdGV4dExlbmd0aD0iOTgiIHg9IjU5NSIgeT0iNzcyLjE4NzUiPiNxdWFsaWZpY2F0aW9uPC90ZXh0PjxsaW5lIHN0eWxlPSJzdHJva2U6IzAwMDAwMDtzdHJva2Utd2lkdGg6MC41OyIgeDE9IjU5MCIgeDI9Ijc0NCIgeTE9Ijc3Ny45Mzc1IiB5Mj0iNzc3LjkzNzUiLz48dGV4dCBmaWxsPSIjMDAwMDAwIiBmb250LWZhbWlseT0ic2Fucy1zZXJpZiIgZm9udC1zaXplPSIxNCIgbGVuZ3RoQWRqdXN0PSJzcGFjaW5nIiB0ZXh0TGVuZ3RoPSIxNDQiIHg9IjU5NSIgeT0iNzk1LjE3MTkiPittYW5hZ2VBc3Nlc3NtZW50cygpPC90ZXh0Pjx0ZXh0IGZpbGw9IiMwMDAwMDAiIGZvbnQtZmFtaWx5PSJzYW5zLXNlcmlmIiBmb250LXNpemU9IjE0IiBsZW5ndGhBZGp1c3Q9InNwYWNpbmciIHRleHRMZW5ndGg9IjEwMiIgeD0iNTk1IiB5PSI4MTAuMTU2MyI+K21hbmFnZUV4YW1zKCk8L3RleHQ+PHRleHQgZmlsbD0iIzAwMDAwMCIgZm9udC1mYW1pbHk9InNhbnMtc2VyaWYiIGZvbnQtc2l6ZT0iMTQiIGxlbmd0aEFkanVzdD0ic3BhY2luZyIgdGV4dExlbmd0aD0iMTM2IiB4PSI1OTUiIHk9IjgyNS4xNDA2Ij4rZ3JhZGVTdWJtaXNzaW9ucygpPC90ZXh0Pjx0ZXh0IGZpbGw9IiMwMDAwMDAiIGZvbnQtZmFtaWx5PSJzYW5zLXNlcmlmIiBmb250LXNpemU9IjE0IiBsZW5ndGhBZGp1c3Q9InNwYWNpbmciIHRleHRMZW5ndGg9IjEyOCIgeD0iNTk1IiB5PSI4NDAuMTI1Ij4rZ2VuZXJhdGVSZXBvcnRzKCk8L3RleHQ+PC9nPjwhLS1jbGFzcyBTZWN0aW9uYWxIZWFkLS0+PGcgaWQ9ImVsZW1fU2VjdGlvbmFsSGVhZCI+PHJlY3QgY29kZUxpbmU9IjY2IiBmaWxsPSIjRkZGRkZGIiBoZWlnaHQ9IjExNS45MDYzIiBpZD0iU2VjdGlvbmFsSGVhZCIgcng9IjIuNSIgcnk9IjIuNSIgc3R5bGU9InN0cm9rZTojMDAwMDAwO3N0cm9rZS13aWR0aDowLjU7IiB3aWR0aD0iMTc1IiB4PSI1NzkuNSIgeT0iOTUxIi8+PHRleHQgZmlsbD0iIzAwMDAwMCIgZm9udC1mYW1pbHk9InNhbnMtc2VyaWYiIGZvbnQtc2l6ZT0iMTQiIGxlbmd0aEFkanVzdD0ic3BhY2luZyIgdGV4dExlbmd0aD0iOTEiIHg9IjYyMS41IiB5PSI5NjkuMjM0NCI+U2VjdGlvbmFsSGVhZDwvdGV4dD48bGluZSBzdHlsZT0ic3Ryb2tlOiMwMDAwMDA7c3Ryb2tlLXdpZHRoOjAuNTsiIHgxPSI1ODAuNSIgeDI9Ijc1My41IiB5MT0iOTc1Ljk4NDQiIHkyPSI5NzUuOTg0NCIvPjx0ZXh0IGZpbGw9IiMwMDAwMDAiIGZvbnQtZmFtaWx5PSJzYW5zLXNlcmlmIiBmb250LXNpemU9IjE0IiBsZW5ndGhBZGp1c3Q9InNwYWNpbmciIHRleHRMZW5ndGg9Ijk4IiB4PSI1ODUuNSIgeT0iOTkzLjIxODgiPiNzZWN0aW9uSGVhZElkPC90ZXh0Pjx0ZXh0IGZpbGw9IiMwMDAwMDAiIGZvbnQtZmFtaWx5PSJzYW5zLXNlcmlmIiBmb250LXNpemU9IjE0IiBsZW5ndGhBZGp1c3Q9InNwYWNpbmciIHRleHRMZW5ndGg9IjcwIiB4PSI1ODUuNSIgeT0iMTAwOC4yMDMxIj4jc2VjdGlvbklkPC90ZXh0PjxsaW5lIHN0eWxlPSJzdHJva2U6IzAwMDAwMDtzdHJva2Utd2lkdGg6MC41OyIgeDE9IjU4MC41IiB4Mj0iNzUzLjUiIHkxPSIxMDEzLjk1MzEiIHkyPSIxMDEzLjk1MzEiLz48dGV4dCBmaWxsPSIjMDAwMDAwIiBmb250LWZhbWlseT0ic2Fucy1zZXJpZiIgZm9udC1zaXplPSIxNCIgbGVuZ3RoQWRqdXN0PSJzcGFjaW5nIiB0ZXh0TGVuZ3RoPSIxMjIiIHg9IjU4NS41IiB5PSIxMDMxLjE4NzUiPittYW5hZ2VUZWFjaGVycygpPC90ZXh0Pjx0ZXh0IGZpbGw9IiMwMDAwMDAiIGZvbnQtZmFtaWx5PSJzYW5zLXNlcmlmIiBmb250LXNpemU9IjE0IiBsZW5ndGhBZGp1c3Q9InNwYWNpbmciIHRleHRMZW5ndGg9IjEzMCIgeD0iNTg1LjUiIHk9IjEwNDYuMTcxOSI+K21hbmFnZVRpbWVUYWJsZSgpPC90ZXh0Pjx0ZXh0IGZpbGw9IiMwMDAwMDAiIGZvbnQtZmFtaWx5PSJzYW5zLXNlcmlmIiBmb250LXNpemU9IjE0IiBsZW5ndGhBZGp1c3Q9InNwYWNpbmciIHRleHRMZW5ndGg9IjE2MyIgeD0iNTg1LjUiIHk9IjEwNjEuMTU2MyI+K2FwcHJvdmVMZWF2ZVJlcXVlc3RzKCk8L3RleHQ+PC9nPjwhLS1jbGFzcyBQcmluY2lwYWwtLT48ZyBpZD0iZWxlbV9QcmluY2lwYWwiPjxyZWN0IGNvZGVMaW5lPSI3NSIgZmlsbD0iI0ZGRkZGRiIgaGVpZ2h0PSIxOTAuODI4MSIgaWQ9IlByaW5jaXBhbCIgcng9IjIuNSIgcnk9IjIuNSIgc3R5bGU9InN0cm9rZTojMDAwMDAwO3N0cm9rZS13aWR0aDowLjU7IiB3aWR0aD0iMjExIiB4PSI1NjIuNSIgeT0iMTE3MiIvPjx0ZXh0IGZpbGw9IiMwMDAwMDAiIGZvbnQtZmFtaWx5PSJzYW5zLXNlcmlmIiBmb250LXNpemU9IjE0IiBsZW5ndGhBZGp1c3Q9InNwYWNpbmciIHRleHRMZW5ndGg9IjYzIiB4PSI2MzYuNSIgeT0iMTE5MC4yMzQ0Ij5QcmluY2lwYWw8L3RleHQ+PGxpbmUgc3R5bGU9InN0cm9rZTojMDAwMDAwO3N0cm9rZS13aWR0aDowLjU7IiB4MT0iNTYzLjUiIHgyPSI3NzIuNSIgeTE9IjExOTYuOTg0NCIgeTI9IjExOTYuOTg0NCIvPjx0ZXh0IGZpbGw9IiMwMDAwMDAiIGZvbnQtZmFtaWx5PSJzYW5zLXNlcmlmIiBmb250LXNpemU9IjE0IiBsZW5ndGhBZGp1c3Q9InNwYWNpbmciIHRleHRMZW5ndGg9Ijg0IiB4PSI1NjguNSIgeT0iMTIxNC4yMTg4Ij4jcHJpbmNpcGFsSWQ8L3RleHQ+PHRleHQgZmlsbD0iIzAwMDAwMCIgZm9udC1mYW1pbHk9InNhbnMtc2VyaWYiIGZvbnQtc2l6ZT0iMTQiIGxlbmd0aEFkanVzdD0ic3BhY2luZyIgdGV4dExlbmd0aD0iMTEzIiB4PSI1NjguNSIgeT0iMTIyOS4yMDMxIj4jYXBwb2ludG1lbnREYXRlPC90ZXh0PjxsaW5lIHN0eWxlPSJzdHJva2U6IzAwMDAwMDtzdHJva2Utd2lkdGg6MC41OyIgeDE9IjU2My41IiB4Mj0iNzcyLjUiIHkxPSIxMjM0Ljk1MzEiIHkyPSIxMjM0Ljk1MzEiLz48dGV4dCBmaWxsPSIjMDAwMDAwIiBmb250LWZhbWlseT0ic2Fucy1zZXJpZiIgZm9udC1zaXplPSIxNCIgbGVuZ3RoQWRqdXN0PSJzcGFjaW5nIiB0ZXh0TGVuZ3RoPSIxNzEiIHg9IjU2OC41IiB5PSIxMjUyLjE4NzUiPiticm9hZGNhc3RBbm5vdW5jZW1lbnQoKTwvdGV4dD48dGV4dCBmaWxsPSIjMDAwMDAwIiBmb250LWZhbWlseT0ic2Fucy1zZXJpZiIgZm9udC1zaXplPSIxNCIgbGVuZ3RoQWRqdXN0PSJzcGFjaW5nIiB0ZXh0TGVuZ3RoPSIxMTUiIHg9IjU2OC41IiB5PSIxMjY3LjE3MTkiPityZXZpZXdSZXBvcnRzKCk8L3RleHQ+PHRleHQgZmlsbD0iIzAwMDAwMCIgZm9udC1mYW1pbHk9InNhbnMtc2VyaWYiIGZvbnQtc2l6ZT0iMTQiIGxlbmd0aEFkanVzdD0ic3BhY2luZyIgdGV4dExlbmd0aD0iMTE0IiB4PSI1NjguNSIgeT0iMTI4Mi4xNTYzIj4rYXBwcm92ZUV2ZW50cygpPC90ZXh0Pjx0ZXh0IGZpbGw9IiMwMDAwMDAiIGZvbnQtZmFtaWx5PSJzYW5zLXNlcmlmIiBmb250LXNpemU9IjE0IiBsZW5ndGhBZGp1c3Q9InNwYWNpbmciIHRleHRMZW5ndGg9IjEwMSIgeD0iNTY4LjUiIHk9IjEyOTcuMTQwNiI+K21hbmFnZVN0YWZmKCk8L3RleHQ+PHRleHQgZmlsbD0iIzAwMDAwMCIgZm9udC1mYW1pbHk9InNhbnMtc2VyaWYiIGZvbnQtc2l6ZT0iMTQiIGxlbmd0aEFkanVzdD0ic3BhY2luZyIgdGV4dExlbmd0aD0iMTQ0IiB4PSI1NjguNSIgeT0iMTMxMi4xMjUiPityZXZpZXdQZXJmb3JtYW5jZSgpPC90ZXh0Pjx0ZXh0IGZpbGw9IiMwMDAwMDAiIGZvbnQtZmFtaWx5PSJzYW5zLXNlcmlmIiBmb250LXNpemU9IjE0IiBsZW5ndGhBZGp1c3Q9InNwYWNpbmciIHRleHRMZW5ndGg9IjE2MyIgeD0iNTY4LjUiIHk9IjEzMjcuMTA5NCI+K2dlbmVyYXRlU2Nob29sUmVwb3J0KCk8L3RleHQ+PHRleHQgZmlsbD0iIzAwMDAwMCIgZm9udC1mYW1pbHk9InNhbnMtc2VyaWYiIGZvbnQtc2l6ZT0iMTQiIGxlbmd0aEFkanVzdD0ic3BhY2luZyIgdGV4dExlbmd0aD0iMTU2IiB4PSI1NjguNSIgeT0iMTM0Mi4wOTM4Ij4rZ2VuZXJhdGVTdGFmZlJlcG9ydCgpPC90ZXh0Pjx0ZXh0IGZpbGw9IiMwMDAwMDAiIGZvbnQtZmFtaWx5PSJzYW5zLXNlcmlmIiBmb250LXNpemU9IjE0IiBsZW5ndGhBZGp1c3Q9InNwYWNpbmciIHRleHRMZW5ndGg9IjE5OSIgeD0iNTY4LjUiIHk9IjEzNTcuMDc4MSI+K2dlbmVyYXRlUGVyZm9ybWFuY2VSZXBvcnQoKTwvdGV4dD48L2c+PCEtLWNsYXNzIEFkbWluLS0+PGcgaWQ9ImVsZW1fQWRtaW4iPjxyZWN0IGNvZGVMaW5lPSI4OSIgZmlsbD0iI0ZGRkZGRiIgaGVpZ2h0PSIxNjAuODU5NCIgaWQ9IkFkbWluIiByeD0iMi41IiByeT0iMi41IiBzdHlsZT0ic3Ryb2tlOiMwMDAwMDA7c3Ryb2tlLXdpZHRoOjAuNTsiIHdpZHRoPSIxODMiIHg9IjYzMy41IiB5PSIxNDIzIi8+PHRleHQgZmlsbD0iIzAwMDAwMCIgZm9udC1mYW1pbHk9InNhbnMtc2VyaWYiIGZvbnQtc2l6ZT0iMTQiIGxlbmd0aEFkanVzdD0ic3BhY2luZyIgdGV4dExlbmd0aD0iMzYiIHg9IjcwNyIgeT0iMTQ0MS4yMzQ0Ij5BZG1pbjwvdGV4dD48bGluZSBzdHlsZT0ic3Ryb2tlOiMwMDAwMDA7c3Ryb2tlLXdpZHRoOjAuNTsiIHgxPSI2MzQuNSIgeDI9IjgxNS41IiB5MT0iMTQ0Ny45ODQ0IiB5Mj0iMTQ0Ny45ODQ0Ii8+PHRleHQgZmlsbD0iIzAwMDAwMCIgZm9udC1mYW1pbHk9InNhbnMtc2VyaWYiIGZvbnQtc2l6ZT0iMTQiIGxlbmd0aEFkanVzdD0ic3BhY2luZyIgdGV4dExlbmd0aD0iNTciIHg9IjYzOS41IiB5PSIxNDY1LjIxODgiPi1hZG1pbklkPC90ZXh0Pjx0ZXh0IGZpbGw9IiMwMDAwMDAiIGZvbnQtZmFtaWx5PSJzYW5zLXNlcmlmIiBmb250LXNpemU9IjE0IiBsZW5ndGhBZGp1c3Q9InNwYWNpbmciIHRleHRMZW5ndGg9Ijg0IiB4PSI2MzkuNSIgeT0iMTQ4MC4yMDMxIj4tYWNjZXNzTGV2ZWw8L3RleHQ+PGxpbmUgc3R5bGU9InN0cm9rZTojMDAwMDAwO3N0cm9rZS13aWR0aDowLjU7IiB4MT0iNjM0LjUiIHgyPSI4MTUuNSIgeTE9IjE0ODUuOTUzMSIgeTI9IjE0ODUuOTUzMSIvPjx0ZXh0IGZpbGw9IiMwMDAwMDAiIGZvbnQtZmFtaWx5PSJzYW5zLXNlcmlmIiBmb250LXNpemU9IjE0IiBsZW5ndGhBZGp1c3Q9InNwYWNpbmciIHRleHRMZW5ndGg9IjEwMSIgeD0iNjM5LjUiIHk9IjE1MDMuMTg3NSI+K21hbmFnZVVzZXJzKCk8L3RleHQ+PHRleHQgZmlsbD0iIzAwMDAwMCIgZm9udC1mYW1pbHk9InNhbnMtc2VyaWYiIGZvbnQtc2l6ZT0iMTQiIGxlbmd0aEFkanVzdD0ic3BhY2luZyIgdGV4dExlbmd0aD0iMTI5IiB4PSI2MzkuNSIgeT0iMTUxOC4xNzE5Ij4rY29uZmlndXJlU3lzdGVtKCk8L3RleHQ+PHRleHQgZmlsbD0iIzAwMDAwMCIgZm9udC1mYW1pbHk9InNhbnMtc2VyaWYiIGZvbnQtc2l6ZT0iMTQiIGxlbmd0aEFkanVzdD0ic3BhY2luZyIgdGV4dExlbmd0aD0iOTMiIHg9IjYzOS41IiB5PSIxNTMzLjE1NjMiPitiYWNrdXBEYXRhKCk8L3RleHQ+PHRleHQgZmlsbD0iIzAwMDAwMCIgZm9udC1mYW1pbHk9InNhbnMtc2VyaWYiIGZvbnQtc2l6ZT0iMTQiIGxlbmd0aEFkanVzdD0ic3BhY2luZyIgdGV4dExlbmd0aD0iMTcxIiB4PSI2MzkuNSIgeT0iMTU0OC4xNDA2Ij4rZ2VuZXJhdGVTeXN0ZW1SZXBvcnRzKCk8L3RleHQ+PHRleHQgZmlsbD0iIzAwMDAwMCIgZm9udC1mYW1pbHk9InNhbnMtc2VyaWYiIGZvbnQtc2l6ZT0iMTQiIGxlbmd0aEFkanVzdD0ic3BhY2luZyIgdGV4dExlbmd0aD0iMTQ0IiB4PSI2MzkuNSIgeT0iMTU2My4xMjUiPittYW5hZ2VQZXJtaXNzaW9ucygpPC90ZXh0Pjx0ZXh0IGZpbGw9IiMwMDAwMDAiIGZvbnQtZmFtaWx5PSJzYW5zLXNlcmlmIiBmb250LXNpemU9IjE0IiBsZW5ndGhBZGp1c3Q9InNwYWNpbmciIHRleHRMZW5ndGg9IjE1MCIgeD0iNjM5LjUiIHk9IjE1NzguMTA5NCI+K2NyZWF0ZUFkbWluQWNjb3VudCgpPC90ZXh0PjwvZz48IS0tY2xhc3MgQ2xhc3MtLT48ZyBpZD0iZWxlbV9DbGFzcyI+PHJlY3QgY29kZUxpbmU9IjEwMSIgZmlsbD0iI0ZGRkZGRiIgaGVpZ2h0PSIxNzUuODQzOCIgaWQ9IkNsYXNzIiByeD0iMi41IiByeT0iMi41IiBzdHlsZT0ic3Ryb2tlOiMwMDAwMDA7c3Ryb2tlLXdpZHRoOjAuNTsiIHdpZHRoPSIxMzMiIHg9IjQ4OS41IiB5PSI0NjQiLz48dGV4dCBmaWxsPSIjMDAwMDAwIiBmb250LWZhbWlseT0ic2Fucy1zZXJpZiIgZm9udC1zaXplPSIxNCIgbGVuZ3RoQWRqdXN0PSJzcGFjaW5nIiB0ZXh0TGVuZ3RoPSIzNSIgeD0iNTM4LjUiIHk9IjQ4Mi4yMzQ0Ij5DbGFzczwvdGV4dD48bGluZSBzdHlsZT0ic3Ryb2tlOiMwMDAwMDA7c3Ryb2tlLXdpZHRoOjAuNTsiIHgxPSI0OTAuNSIgeDI9IjYyMS41IiB5MT0iNDg4Ljk4NDQiIHkyPSI0ODguOTg0NCIvPjx0ZXh0IGZpbGw9IiMwMDAwMDAiIGZvbnQtZmFtaWx5PSJzYW5zLXNlcmlmIiBmb250LXNpemU9IjE0IiBsZW5ndGhBZGp1c3Q9InNwYWNpbmciIHRleHRMZW5ndGg9IjIxIiB4PSI0OTUuNSIgeT0iNTA2LjIxODgiPi1pZDwvdGV4dD48dGV4dCBmaWxsPSIjMDAwMDAwIiBmb250LWZhbWlseT0ic2Fucy1zZXJpZiIgZm9udC1zaXplPSIxNCIgbGVuZ3RoQWRqdXN0PSJzcGFjaW5nIiB0ZXh0TGVuZ3RoPSIzNiIgeD0iNDk1LjUiIHk9IjUyMS4yMDMxIj4tbmFtZTwvdGV4dD48dGV4dCBmaWxsPSIjMDAwMDAwIiBmb250LWZhbWlseT0ic2Fucy1zZXJpZiIgZm9udC1zaXplPSIxNCIgbGVuZ3RoQWRqdXN0PSJzcGFjaW5nIiB0ZXh0TGVuZ3RoPSI0MiIgeD0iNDk1LjUiIHk9IjUzNi4xODc1Ij4tZ3JhZGU8L3RleHQ+PHRleHQgZmlsbD0iIzAwMDAwMCIgZm9udC1mYW1pbHk9InNhbnMtc2VyaWYiIGZvbnQtc2l6ZT0iMTQiIGxlbmd0aEFkanVzdD0ic3BhY2luZyIgdGV4dExlbmd0aD0iNTYiIHg9IjQ5NS41IiB5PSI1NTEuMTcxOSI+LXNlY3Rpb248L3RleHQ+PGxpbmUgc3R5bGU9InN0cm9rZTojMDAwMDAwO3N0cm9rZS13aWR0aDowLjU7IiB4MT0iNDkwLjUiIHgyPSI2MjEuNSIgeTE9IjU1Ni45MjE5IiB5Mj0iNTU2LjkyMTkiLz48dGV4dCBmaWxsPSIjMDAwMDAwIiBmb250LWZhbWlseT0ic2Fucy1zZXJpZiIgZm9udC1zaXplPSIxNCIgbGVuZ3RoQWRqdXN0PSJzcGFjaW5nIiB0ZXh0TGVuZ3RoPSI3OSIgeD0iNDk1LjUiIHk9IjU3NC4xNTYzIj4rYWRkQ2xhc3MoKTwvdGV4dD48dGV4dCBmaWxsPSIjMDAwMDAwIiBmb250LWZhbWlseT0ic2Fucy1zZXJpZiIgZm9udC1zaXplPSIxNCIgbGVuZ3RoQWRqdXN0PSJzcGFjaW5nIiB0ZXh0TGVuZ3RoPSIxMDAiIHg9IjQ5NS41IiB5PSI1ODkuMTQwNiI+K3VwZGF0ZUNsYXNzKCk8L3RleHQ+PHRleHQgZmlsbD0iIzAwMDAwMCIgZm9udC1mYW1pbHk9InNhbnMtc2VyaWYiIGZvbnQtc2l6ZT0iMTQiIGxlbmd0aEFkanVzdD0ic3BhY2luZyIgdGV4dExlbmd0aD0iMTAwIiB4PSI0OTUuNSIgeT0iNjA0LjEyNSI+K2RlbGV0ZUNsYXNzKCk8L3RleHQ+PHRleHQgZmlsbD0iIzAwMDAwMCIgZm9udC1mYW1pbHk9InNhbnMtc2VyaWYiIGZvbnQtc2l6ZT0iMTQiIGxlbmd0aEFkanVzdD0ic3BhY2luZyIgdGV4dExlbmd0aD0iMTE0IiB4PSI0OTUuNSIgeT0iNjE5LjEwOTQiPithc3NpZ25UZWFjaGVyKCk8L3RleHQ+PHRleHQgZmlsbD0iIzAwMDAwMCIgZm9udC1mYW1pbHk9InNhbnMtc2VyaWYiIGZvbnQtc2l6ZT0iMTQiIGxlbmd0aEFkanVzdD0ic3BhY2luZyIgdGV4dExlbmd0aD0iMTIxIiB4PSI0OTUuNSIgeT0iNjM0LjA5MzgiPithc3NpZ25TdHVkZW50cygpPC90ZXh0PjwvZz48IS0tY2xhc3MgQXNzZXNzbWVudC0tPjxnIGlkPSJlbGVtX0Fzc2Vzc21lbnQiPjxyZWN0IGNvZGVMaW5lPSIxMTQiIGZpbGw9IiNGRkZGRkYiIGhlaWdodD0iMjA1LjgxMjUiIGlkPSJBc3Nlc3NtZW50IiByeD0iMi41IiByeT0iMi41IiBzdHlsZT0ic3Ryb2tlOiMwMDAwMDA7c3Ryb2tlLXdpZHRoOjAuNTsiIHdpZHRoPSIxNDgiIHg9IjciIHk9IjkwNiIvPjx0ZXh0IGZpbGw9IiMwMDAwMDAiIGZvbnQtZmFtaWx5PSJzYW5zLXNlcmlmIiBmb250LXNpemU9IjE0IiBsZW5ndGhBZGp1c3Q9InNwYWNpbmciIHRleHRMZW5ndGg9IjcxIiB4PSI0NS41IiB5PSI5MjQuMjM0NCI+QXNzZXNzbWVudDwvdGV4dD48bGluZSBzdHlsZT0ic3Ryb2tlOiMwMDAwMDA7c3Ryb2tlLXdpZHRoOjAuNTsiIHgxPSI4IiB4Mj0iMTU0IiB5MT0iOTMwLjk4NDQiIHkyPSI5MzAuOTg0NCIvPjx0ZXh0IGZpbGw9IiMwMDAwMDAiIGZvbnQtZmFtaWx5PSJzYW5zLXNlcmlmIiBmb250LXNpemU9IjE0IiBsZW5ndGhBZGp1c3Q9InNwYWNpbmciIHRleHRMZW5ndGg9IjIxIiB4PSIxMyIgeT0iOTQ4LjIxODgiPi1pZDwvdGV4dD48dGV4dCBmaWxsPSIjMDAwMDAwIiBmb250LWZhbWlseT0ic2Fucy1zZXJpZiIgZm9udC1zaXplPSIxNCIgbGVuZ3RoQWRqdXN0PSJzcGFjaW5nIiB0ZXh0TGVuZ3RoPSI0MiIgeD0iMTMiIHk9Ijk2My4yMDMxIj4tdGl0bGU8L3RleHQ+PHRleHQgZmlsbD0iIzAwMDAwMCIgZm9udC1mYW1pbHk9InNhbnMtc2VyaWYiIGZvbnQtc2l6ZT0iMTQiIGxlbmd0aEFkanVzdD0ic3BhY2luZyIgdGV4dExlbmd0aD0iODQiIHg9IjEzIiB5PSI5NzguMTg3NSI+LWRlc2NyaXB0aW9uPC90ZXh0Pjx0ZXh0IGZpbGw9IiMwMDAwMDAiIGZvbnQtZmFtaWx5PSJzYW5zLXNlcmlmIiBmb250LXNpemU9IjE0IiBsZW5ndGhBZGp1c3Q9InNwYWNpbmciIHRleHRMZW5ndGg9IjU2IiB4PSIxMyIgeT0iOTkzLjE3MTkiPi1kdWVEYXRlPC90ZXh0Pjx0ZXh0IGZpbGw9IiMwMDAwMDAiIGZvbnQtZmFtaWx5PSJzYW5zLXNlcmlmIiBmb250LXNpemU9IjE0IiBsZW5ndGhBZGp1c3Q9InNwYWNpbmciIHRleHRMZW5ndGg9Ijc3IiB4PSIxMyIgeT0iMTAwOC4xNTYzIj4tdG90YWxNYXJrczwvdGV4dD48dGV4dCBmaWxsPSIjMDAwMDAwIiBmb250LWZhbWlseT0ic2Fucy1zZXJpZiIgZm9udC1zaXplPSIxNCIgbGVuZ3RoQWRqdXN0PSJzcGFjaW5nIiB0ZXh0TGVuZ3RoPSI1NiIgeD0iMTMiIHk9IjEwMjMuMTQwNiI+LXN1YmplY3Q8L3RleHQ+PHRleHQgZmlsbD0iIzAwMDAwMCIgZm9udC1mYW1pbHk9InNhbnMtc2VyaWYiIGZvbnQtc2l6ZT0iMTQiIGxlbmd0aEFkanVzdD0ic3BhY2luZyIgdGV4dExlbmd0aD0iNzciIHg9IjEzIiB5PSIxMDM4LjEyNSI+LWFzc2lnbmVkVG88L3RleHQ+PGxpbmUgc3R5bGU9InN0cm9rZTojMDAwMDAwO3N0cm9rZS13aWR0aDowLjU7IiB4MT0iOCIgeDI9IjE1NCIgeTE9IjEwNDMuODc1IiB5Mj0iMTA0My44NzUiLz48dGV4dCBmaWxsPSIjMDAwMDAwIiBmb250LWZhbWlseT0ic2Fucy1zZXJpZiIgZm9udC1zaXplPSIxNCIgbGVuZ3RoQWRqdXN0PSJzcGFjaW5nIiB0ZXh0TGVuZ3RoPSIxMzYiIHg9IjEzIiB5PSIxMDYxLjEwOTQiPitjcmVhdGVBc3Nlc3NtZW50KCk8L3RleHQ+PHRleHQgZmlsbD0iIzAwMDAwMCIgZm9udC1mYW1pbHk9InNhbnMtc2VyaWYiIGZvbnQtc2l6ZT0iMTQiIGxlbmd0aEFkanVzdD0ic3BhY2luZyIgdGV4dExlbmd0aD0iMTM2IiB4PSIxMyIgeT0iMTA3Ni4wOTM4Ij4rdXBkYXRlQXNzZXNzbWVudCgpPC90ZXh0Pjx0ZXh0IGZpbGw9IiMwMDAwMDAiIGZvbnQtZmFtaWx5PSJzYW5zLXNlcmlmIiBmb250LXNpemU9IjE0IiBsZW5ndGhBZGp1c3Q9InNwYWNpbmciIHRleHRMZW5ndGg9IjEzNiIgeD0iMTMiIHk9IjEwOTEuMDc4MSI+K2RlbGV0ZUFzc2Vzc21lbnQoKTwvdGV4dD48dGV4dCBmaWxsPSIjMDAwMDAwIiBmb250LWZhbWlseT0ic2Fucy1zZXJpZiIgZm9udC1zaXplPSIxNCIgbGVuZ3RoQWRqdXN0PSJzcGFjaW5nIiB0ZXh0TGVuZ3RoPSIxMzUiIHg9IjEzIiB5PSIxMTA2LjA2MjUiPithc3NpZ25Ub1N0dWRlbnRzKCk8L3RleHQ+PC9nPjwhLS1jbGFzcyBFeGFtLS0+PGcgaWQ9ImVsZW1fRXhhbSI+PHJlY3QgY29kZUxpbmU9IjEyOSIgZmlsbD0iI0ZGRkZGRiIgaGVpZ2h0PSIyMDUuODEyNSIgaWQ9IkV4YW0iIHJ4PSIyLjUiIHJ5PSIyLjUiIHN0eWxlPSJzdHJva2U6IzAwMDAwMDtzdHJva2Utd2lkdGg6MC41OyIgd2lkdGg9IjE0MCIgeD0iNzI5IiB5PSIxOTgiLz48dGV4dCBmaWxsPSIjMDAwMDAwIiBmb250LWZhbWlseT0ic2Fucy1zZXJpZiIgZm9udC1zaXplPSIxNCIgbGVuZ3RoQWRqdXN0PSJzcGFjaW5nIiB0ZXh0TGVuZ3RoPSIyOSIgeD0iNzg0LjUiIHk9IjIxNi4yMzQ0Ij5FeGFtPC90ZXh0PjxsaW5lIHN0eWxlPSJzdHJva2U6IzAwMDAwMDtzdHJva2Utd2lkdGg6MC41OyIgeDE9IjczMCIgeDI9Ijg2OCIgeTE9IjIyMi45ODQ0IiB5Mj0iMjIyLjk4NDQiLz48dGV4dCBmaWxsPSIjMDAwMDAwIiBmb250LWZhbWlseT0ic2Fucy1zZXJpZiIgZm9udC1zaXplPSIxNCIgbGVuZ3RoQWRqdXN0PSJzcGFjaW5nIiB0ZXh0TGVuZ3RoPSIyMSIgeD0iNzM1IiB5PSIyNDAuMjE4OCI+LWlkPC90ZXh0Pjx0ZXh0IGZpbGw9IiMwMDAwMDAiIGZvbnQtZmFtaWx5PSJzYW5zLXNlcmlmIiBmb250LXNpemU9IjE0IiBsZW5ndGhBZGp1c3Q9InNwYWNpbmciIHRleHRMZW5ndGg9IjM1IiB4PSI3MzUiIHk9IjI1NS4yMDMxIj4teWVhcjwvdGV4dD48dGV4dCBmaWxsPSIjMDAwMDAwIiBmb250LWZhbWlseT0ic2Fucy1zZXJpZiIgZm9udC1zaXplPSIxNCIgbGVuZ3RoQWRqdXN0PSJzcGFjaW5nIiB0ZXh0TGVuZ3RoPSIzNiIgeD0iNzM1IiB5PSIyNzAuMTg3NSI+LXRlcm08L3RleHQ+PHRleHQgZmlsbD0iIzAwMDAwMCIgZm9udC1mYW1pbHk9InNhbnMtc2VyaWYiIGZvbnQtc2l6ZT0iMTQiIGxlbmd0aEFkanVzdD0ic3BhY2luZyIgdGV4dExlbmd0aD0iMzUiIHg9IjczNSIgeT0iMjg1LjE3MTkiPi1kYXRlPC90ZXh0Pjx0ZXh0IGZpbGw9IiMwMDAwMDAiIGZvbnQtZmFtaWx5PSJzYW5zLXNlcmlmIiBmb250LXNpemU9IjE0IiBsZW5ndGhBZGp1c3Q9InNwYWNpbmciIHRleHRMZW5ndGg9IjYzIiB4PSI3MzUiIHk9IjMwMC4xNTYzIj4tZHVyYXRpb248L3RleHQ+PHRleHQgZmlsbD0iIzAwMDAwMCIgZm9udC1mYW1pbHk9InNhbnMtc2VyaWYiIGZvbnQtc2l6ZT0iMTQiIGxlbmd0aEFkanVzdD0ic3BhY2luZyIgdGV4dExlbmd0aD0iOTEiIHg9IjczNSIgeT0iMzE1LjE0MDYiPi1hdmVyYWdlTWFya3M8L3RleHQ+PGxpbmUgc3R5bGU9InN0cm9rZTojMDAwMDAwO3N0cm9rZS13aWR0aDowLjU7IiB4MT0iNzMwIiB4Mj0iODY4IiB5MT0iMzIwLjg5MDYiIHkyPSIzMjAuODkwNiIvPjx0ZXh0IGZpbGw9IiMwMDAwMDAiIGZvbnQtZmFtaWx5PSJzYW5zLXNlcmlmIiBmb250LXNpemU9IjE0IiBsZW5ndGhBZGp1c3Q9InNwYWNpbmciIHRleHRMZW5ndGg9Ijk0IiB4PSI3MzUiIHk9IjMzOC4xMjUiPitjcmVhdGVFeGFtKCk8L3RleHQ+PHRleHQgZmlsbD0iIzAwMDAwMCIgZm9udC1mYW1pbHk9InNhbnMtc2VyaWYiIGZvbnQtc2l6ZT0iMTQiIGxlbmd0aEFkanVzdD0ic3BhY2luZyIgdGV4dExlbmd0aD0iOTQiIHg9IjczNSIgeT0iMzUzLjEwOTQiPit1cGRhdGVFeGFtKCk8L3RleHQ+PHRleHQgZmlsbD0iIzAwMDAwMCIgZm9udC1mYW1pbHk9InNhbnMtc2VyaWYiIGZvbnQtc2l6ZT0iMTQiIGxlbmd0aEFkanVzdD0ic3BhY2luZyIgdGV4dExlbmd0aD0iOTQiIHg9IjczNSIgeT0iMzY4LjA5MzgiPitkZWxldGVFeGFtKCk8L3RleHQ+PHRleHQgZmlsbD0iIzAwMDAwMCIgZm9udC1mYW1pbHk9InNhbnMtc2VyaWYiIGZvbnQtc2l6ZT0iMTQiIGxlbmd0aEFkanVzdD0ic3BhY2luZyIgdGV4dExlbmd0aD0iMTI4IiB4PSI3MzUiIHk9IjM4My4wNzgxIj4rYXNzaWduVG9DbGFzc2VzKCk8L3RleHQ+PHRleHQgZmlsbD0iIzAwMDAwMCIgZm9udC1mYW1pbHk9InNhbnMtc2VyaWYiIGZvbnQtc2l6ZT0iMTQiIGxlbmd0aEFkanVzdD0ic3BhY2luZyIgdGV4dExlbmd0aD0iMTI4IiB4PSI3MzUiIHk9IjM5OC4wNjI1Ij4rZ2VuZXJhdGVSZXN1bHRzKCk8L3RleHQ+PC9nPjwhLS1jbGFzcyBFeGFtUmVzdWx0LS0+PGcgaWQ9ImVsZW1fRXhhbVJlc3VsdCI+PHJlY3QgY29kZUxpbmU9IjE0NCIgZmlsbD0iI0ZGRkZGRiIgaGVpZ2h0PSIxOTAuODI4MSIgaWQ9IkV4YW1SZXN1bHQiIHJ4PSIyLjUiIHJ5PSIyLjUiIHN0eWxlPSJzdHJva2U6IzAwMDAwMDtzdHJva2Utd2lkdGg6MC41OyIgd2lkdGg9IjEzMyIgeD0iOTMyLjUiIHk9IjkxMy41Ii8+PHRleHQgZmlsbD0iIzAwMDAwMCIgZm9udC1mYW1pbHk9InNhbnMtc2VyaWYiIGZvbnQtc2l6ZT0iMTQiIGxlbmd0aEFkanVzdD0ic3BhY2luZyIgdGV4dExlbmd0aD0iNzEiIHg9Ijk2My41IiB5PSI5MzEuNzM0NCI+RXhhbVJlc3VsdDwvdGV4dD48bGluZSBzdHlsZT0ic3Ryb2tlOiMwMDAwMDA7c3Ryb2tlLXdpZHRoOjAuNTsiIHgxPSI5MzMuNSIgeDI9IjEwNjQuNSIgeTE9IjkzOC40ODQ0IiB5Mj0iOTM4LjQ4NDQiLz48dGV4dCBmaWxsPSIjMDAwMDAwIiBmb250LWZhbWlseT0ic2Fucy1zZXJpZiIgZm9udC1zaXplPSIxNCIgbGVuZ3RoQWRqdXN0PSJzcGFjaW5nIiB0ZXh0TGVuZ3RoPSIyMSIgeD0iOTM4LjUiIHk9Ijk1NS43MTg4Ij4taWQ8L3RleHQ+PHRleHQgZmlsbD0iIzAwMDAwMCIgZm9udC1mYW1pbHk9InNhbnMtc2VyaWYiIGZvbnQtc2l6ZT0iMTQiIGxlbmd0aEFkanVzdD0ic3BhY2luZyIgdGV4dExlbmd0aD0iNDMiIHg9IjkzOC41IiB5PSI5NzAuNzAzMSI+LW1hcmtzPC90ZXh0Pjx0ZXh0IGZpbGw9IiMwMDAwMDAiIGZvbnQtZmFtaWx5PSJzYW5zLXNlcmlmIiBmb250LXNpemU9IjE0IiBsZW5ndGhBZGp1c3Q9InNwYWNpbmciIHRleHRMZW5ndGg9IjQyIiB4PSI5MzguNSIgeT0iOTg1LjY4NzUiPi1ncmFkZTwvdGV4dD48dGV4dCBmaWxsPSIjMDAwMDAwIiBmb250LWZhbWlseT0ic2Fucy1zZXJpZiIgZm9udC1zaXplPSIxNCIgbGVuZ3RoQWRqdXN0PSJzcGFjaW5nIiB0ZXh0TGVuZ3RoPSI1NyIgeD0iOTM4LjUiIHk9IjEwMDAuNjcxOSI+LXJlbWFya3M8L3RleHQ+PHRleHQgZmlsbD0iIzAwMDAwMCIgZm9udC1mYW1pbHk9InNhbnMtc2VyaWYiIGZvbnQtc2l6ZT0iMTQiIGxlbmd0aEFkanVzdD0ic3BhY2luZyIgdGV4dExlbmd0aD0iMzUiIHg9IjkzOC41IiB5PSIxMDE1LjY1NjMiPi1kYXRlPC90ZXh0PjxsaW5lIHN0eWxlPSJzdHJva2U6IzAwMDAwMDtzdHJva2Utd2lkdGg6MC41OyIgeDE9IjkzMy41IiB4Mj0iMTA2NC41IiB5MT0iMTAyMS40MDYzIiB5Mj0iMTAyMS40MDYzIi8+PHRleHQgZmlsbD0iIzAwMDAwMCIgZm9udC1mYW1pbHk9InNhbnMtc2VyaWYiIGZvbnQtc2l6ZT0iMTQiIGxlbmd0aEFkanVzdD0ic3BhY2luZyIgdGV4dExlbmd0aD0iMTIxIiB4PSI5MzguNSIgeT0iMTAzOC42NDA2Ij4rY2FsY3VsYXRlR3JhZGUoKTwvdGV4dD48dGV4dCBmaWxsPSIjMDAwMDAwIiBmb250LWZhbWlseT0ic2Fucy1zZXJpZiIgZm9udC1zaXplPSIxNCIgbGVuZ3RoQWRqdXN0PSJzcGFjaW5nIiB0ZXh0TGVuZ3RoPSIxMjEiIHg9IjkzOC41IiB5PSIxMDUzLjYyNSI+K2dlbmVyYXRlUmVwb3J0KCk8L3RleHQ+PHRleHQgZmlsbD0iIzAwMDAwMCIgZm9udC1mYW1pbHk9InNhbnMtc2VyaWYiIGZvbnQtc2l6ZT0iMTQiIGxlbmd0aEFkanVzdD0ic3BhY2luZyIgdGV4dExlbmd0aD0iMTA3IiB4PSI5MzguNSIgeT0iMTA2OC42MDk0Ij4rdXBkYXRlUmVzdWx0KCk8L3RleHQ+PHRleHQgZmlsbD0iIzAwMDAwMCIgZm9udC1mYW1pbHk9InNhbnMtc2VyaWYiIGZvbnQtc2l6ZT0iMTQiIGxlbmd0aEFkanVzdD0ic3BhY2luZyIgdGV4dExlbmd0aD0iMTA3IiB4PSI5MzguNSIgeT0iMTA4My41OTM4Ij4rZGVsZXRlUmVzdWx0KCk8L3RleHQ+PHRleHQgZmlsbD0iIzAwMDAwMCIgZm9udC1mYW1pbHk9InNhbnMtc2VyaWYiIGZvbnQtc2l6ZT0iMTQiIGxlbmd0aEFkanVzdD0ic3BhY2luZyIgdGV4dExlbmd0aD0iMTE0IiB4PSI5MzguNSIgeT0iMTA5OC41NzgxIj4rcHVibGlzaFJlc3VsdCgpPC90ZXh0PjwvZz48IS0tY2xhc3MgVGltZVRhYmxlLS0+PGcgaWQ9ImVsZW1fVGltZVRhYmxlIj48cmVjdCBjb2RlTGluZT0iMTU4IiBmaWxsPSIjRkZGRkZGIiBoZWlnaHQ9IjE0NS44NzUiIGlkPSJUaW1lVGFibGUiIHJ4PSIyLjUiIHJ5PSIyLjUiIHN0eWxlPSJzdHJva2U6IzAwMDAwMDtzdHJva2Utd2lkdGg6MC41OyIgd2lkdGg9IjE0NyIgeD0iMjAzLjUiIHk9IjExOTQuNSIvPjx0ZXh0IGZpbGw9IiMwMDAwMDAiIGZvbnQtZmFtaWx5PSJzYW5zLXNlcmlmIiBmb250LXNpemU9IjE0IiBsZW5ndGhBZGp1c3Q9InNwYWNpbmciIHRleHRMZW5ndGg9IjY0IiB4PSIyNDUiIHk9IjEyMTIuNzM0NCI+VGltZVRhYmxlPC90ZXh0PjxsaW5lIHN0eWxlPSJzdHJva2U6IzAwMDAwMDtzdHJva2Utd2lkdGg6MC41OyIgeDE9IjIwNC41IiB4Mj0iMzQ5LjUiIHkxPSIxMjE5LjQ4NDQiIHkyPSIxMjE5LjQ4NDQiLz48dGV4dCBmaWxsPSIjMDAwMDAwIiBmb250LWZhbWlseT0ic2Fucy1zZXJpZiIgZm9udC1zaXplPSIxNCIgbGVuZ3RoQWRqdXN0PSJzcGFjaW5nIiB0ZXh0TGVuZ3RoPSIyMSIgeD0iMjA5LjUiIHk9IjEyMzYuNzE4OCI+LWlkPC90ZXh0Pjx0ZXh0IGZpbGw9IiMwMDAwMDAiIGZvbnQtZmFtaWx5PSJzYW5zLXNlcmlmIiBmb250LXNpemU9IjE0IiBsZW5ndGhBZGp1c3Q9InNwYWNpbmciIHRleHRMZW5ndGg9IjcxIiB4PSIyMDkuNSIgeT0iMTI1MS43MDMxIj4tdmFsaWRGcm9tPC90ZXh0Pjx0ZXh0IGZpbGw9IiMwMDAwMDAiIGZvbnQtZmFtaWx5PSJzYW5zLXNlcmlmIiBmb250LXNpemU9IjE0IiBsZW5ndGhBZGp1c3Q9InNwYWNpbmciIHRleHRMZW5ndGg9IjU2IiB4PSIyMDkuNSIgeT0iMTI2Ni42ODc1Ij4tdmFsaWRUbzwvdGV4dD48bGluZSBzdHlsZT0ic3Ryb2tlOiMwMDAwMDA7c3Ryb2tlLXdpZHRoOjAuNTsiIHgxPSIyMDQuNSIgeDI9IjM0OS41IiB5MT0iMTI3Mi40Mzc1IiB5Mj0iMTI3Mi40Mzc1Ii8+PHRleHQgZmlsbD0iIzAwMDAwMCIgZm9udC1mYW1pbHk9InNhbnMtc2VyaWYiIGZvbnQtc2l6ZT0iMTQiIGxlbmd0aEFkanVzdD0ic3BhY2luZyIgdGV4dExlbmd0aD0iMTIxIiB4PSIyMDkuNSIgeT0iMTI4OS42NzE5Ij4rY3JlYXRlU2NoZWR1bGUoKTwvdGV4dD48dGV4dCBmaWxsPSIjMDAwMDAwIiBmb250LWZhbWlseT0ic2Fucy1zZXJpZiIgZm9udC1zaXplPSIxNCIgbGVuZ3RoQWRqdXN0PSJzcGFjaW5nIiB0ZXh0TGVuZ3RoPSIxMjEiIHg9IjIwOS41IiB5PSIxMzA0LjY1NjMiPit1cGRhdGVTY2hlZHVsZSgpPC90ZXh0Pjx0ZXh0IGZpbGw9IiMwMDAwMDAiIGZvbnQtZmFtaWx5PSJzYW5zLXNlcmlmIiBmb250LXNpemU9IjE0IiBsZW5ndGhBZGp1c3Q9InNwYWNpbmciIHRleHRMZW5ndGg9IjEyMSIgeD0iMjA5LjUiIHk9IjEzMTkuNjQwNiI+K2RlbGV0ZVNjaGVkdWxlKCk8L3RleHQ+PHRleHQgZmlsbD0iIzAwMDAwMCIgZm9udC1mYW1pbHk9InNhbnMtc2VyaWYiIGZvbnQtc2l6ZT0iMTQiIGxlbmd0aEFkanVzdD0ic3BhY2luZyIgdGV4dExlbmd0aD0iMTM1IiB4PSIyMDkuNSIgeT0iMTMzNC42MjUiPit2YWxpZGF0ZVNjaGVkdWxlKCk8L3RleHQ+PC9nPjwhLS1jbGFzcyBTZXNzaW9uLS0+PGcgaWQ9ImVsZW1fU2Vzc2lvbiI+PHJlY3QgY29kZUxpbmU9IjE2OSIgZmlsbD0iI0ZGRkZGRiIgaGVpZ2h0PSIxNjAuODU5NCIgaWQ9IlNlc3Npb24iIHJ4PSIyLjUiIHJ5PSIyLjUiIHN0eWxlPSJzdHJva2U6IzAwMDAwMDtzdHJva2Utd2lkdGg6MC41OyIgd2lkdGg9IjEyNiIgeD0iMjk2IiB5PSIxNDIzIi8+PHRleHQgZmlsbD0iIzAwMDAwMCIgZm9udC1mYW1pbHk9InNhbnMtc2VyaWYiIGZvbnQtc2l6ZT0iMTQiIGxlbmd0aEFkanVzdD0ic3BhY2luZyIgdGV4dExlbmd0aD0iNDkiIHg9IjMzNC41IiB5PSIxNDQxLjIzNDQiPlNlc3Npb248L3RleHQ+PGxpbmUgc3R5bGU9InN0cm9rZTojMDAwMDAwO3N0cm9rZS13aWR0aDowLjU7IiB4MT0iMjk3IiB4Mj0iNDIxIiB5MT0iMTQ0Ny45ODQ0IiB5Mj0iMTQ0Ny45ODQ0Ii8+PHRleHQgZmlsbD0iIzAwMDAwMCIgZm9udC1mYW1pbHk9InNhbnMtc2VyaWYiIGZvbnQtc2l6ZT0iMTQiIGxlbmd0aEFkanVzdD0ic3BhY2luZyIgdGV4dExlbmd0aD0iMjEiIHg9IjMwMiIgeT0iMTQ2NS4yMTg4Ij4taWQ8L3RleHQ+PHRleHQgZmlsbD0iIzAwMDAwMCIgZm9udC1mYW1pbHk9InNhbnMtc2VyaWYiIGZvbnQtc2l6ZT0iMTQiIGxlbmd0aEFkanVzdD0ic3BhY2luZyIgdGV4dExlbmd0aD0iNzEiIHg9IjMwMiIgeT0iMTQ4MC4yMDMxIj4tc3RhcnRUaW1lPC90ZXh0Pjx0ZXh0IGZpbGw9IiMwMDAwMDAiIGZvbnQtZmFtaWx5PSJzYW5zLXNlcmlmIiBmb250LXNpemU9IjE0IiBsZW5ndGhBZGp1c3Q9InNwYWNpbmciIHRleHRMZW5ndGg9IjU3IiB4PSIzMDIiIHk9IjE0OTUuMTg3NSI+LWVuZFRpbWU8L3RleHQ+PHRleHQgZmlsbD0iIzAwMDAwMCIgZm9udC1mYW1pbHk9InNhbnMtc2VyaWYiIGZvbnQtc2l6ZT0iMTQiIGxlbmd0aEFkanVzdD0ic3BhY2luZyIgdGV4dExlbmd0aD0iMjgiIHg9IjMwMiIgeT0iMTUxMC4xNzE5Ij4tZGF5PC90ZXh0PjxsaW5lIHN0eWxlPSJzdHJva2U6IzAwMDAwMDtzdHJva2Utd2lkdGg6MC41OyIgeDE9IjI5NyIgeDI9IjQyMSIgeTE9IjE1MTUuOTIxOSIgeTI9IjE1MTUuOTIxOSIvPjx0ZXh0IGZpbGw9IiMwMDAwMDAiIGZvbnQtZmFtaWx5PSJzYW5zLXNlcmlmIiBmb250LXNpemU9IjE0IiBsZW5ndGhBZGp1c3Q9InNwYWNpbmciIHRleHRMZW5ndGg9IjExNCIgeD0iMzAyIiB5PSIxNTMzLjE1NjMiPitjcmVhdGVTZXNzaW9uKCk8L3RleHQ+PHRleHQgZmlsbD0iIzAwMDAwMCIgZm9udC1mYW1pbHk9InNhbnMtc2VyaWYiIGZvbnQtc2l6ZT0iMTQiIGxlbmd0aEFkanVzdD0ic3BhY2luZyIgdGV4dExlbmd0aD0iMTE0IiB4PSIzMDIiIHk9IjE1NDguMTQwNiI+K3VwZGF0ZVNlc3Npb24oKTwvdGV4dD48dGV4dCBmaWxsPSIjMDAwMDAwIiBmb250LWZhbWlseT0ic2Fucy1zZXJpZiIgZm9udC1zaXplPSIxNCIgbGVuZ3RoQWRqdXN0PSJzcGFjaW5nIiB0ZXh0TGVuZ3RoPSIxMTQiIHg9IjMwMiIgeT0iMTU2My4xMjUiPitkZWxldGVTZXNzaW9uKCk8L3RleHQ+PHRleHQgZmlsbD0iIzAwMDAwMCIgZm9udC1mYW1pbHk9InNhbnMtc2VyaWYiIGZvbnQtc2l6ZT0iMTQiIGxlbmd0aEFkanVzdD0ic3BhY2luZyIgdGV4dExlbmd0aD0iMTA4IiB4PSIzMDIiIHk9IjE1NzguMTA5NCI+K3ZhbGlkYXRlVGltZSgpPC90ZXh0PjwvZz48IS0tY2xhc3MgQXR0ZW5kYW5jZS0tPjxnIGlkPSJlbGVtX0F0dGVuZGFuY2UiPjxyZWN0IGNvZGVMaW5lPSIxODEiIGZpbGw9IiNGRkZGRkYiIGhlaWdodD0iMTc1Ljg0MzgiIGlkPSJBdHRlbmRhbmNlIiByeD0iMi41IiByeT0iMi41IiBzdHlsZT0ic3Ryb2tlOiMwMDAwMDA7c3Ryb2tlLXdpZHRoOjAuNTsiIHdpZHRoPSIyMzgiIHg9IjExMDEiIHk9IjkyMSIvPjx0ZXh0IGZpbGw9IiMwMDAwMDAiIGZvbnQtZmFtaWx5PSJzYW5zLXNlcmlmIiBmb250LXNpemU9IjE0IiBsZW5ndGhBZGp1c3Q9InNwYWNpbmciIHRleHRMZW5ndGg9IjcwIiB4PSIxMTg1IiB5PSI5MzkuMjM0NCI+QXR0ZW5kYW5jZTwvdGV4dD48bGluZSBzdHlsZT0ic3Ryb2tlOiMwMDAwMDA7c3Ryb2tlLXdpZHRoOjAuNTsiIHgxPSIxMTAyIiB4Mj0iMTMzOCIgeTE9Ijk0NS45ODQ0IiB5Mj0iOTQ1Ljk4NDQiLz48dGV4dCBmaWxsPSIjMDAwMDAwIiBmb250LWZhbWlseT0ic2Fucy1zZXJpZiIgZm9udC1zaXplPSIxNCIgbGVuZ3RoQWRqdXN0PSJzcGFjaW5nIiB0ZXh0TGVuZ3RoPSIyMSIgeD0iMTEwNyIgeT0iOTYzLjIxODgiPi1pZDwvdGV4dD48dGV4dCBmaWxsPSIjMDAwMDAwIiBmb250LWZhbWlseT0ic2Fucy1zZXJpZiIgZm9udC1zaXplPSIxNCIgbGVuZ3RoQWRqdXN0PSJzcGFjaW5nIiB0ZXh0TGVuZ3RoPSIzNSIgeD0iMTEwNyIgeT0iOTc4LjIwMzEiPi1kYXRlPC90ZXh0Pjx0ZXh0IGZpbGw9IiMwMDAwMDAiIGZvbnQtZmFtaWx5PSJzYW5zLXNlcmlmIiBmb250LXNpemU9IjE0IiBsZW5ndGhBZGp1c3Q9InNwYWNpbmciIHRleHRMZW5ndGg9IjQ5IiB4PSIxMTA3IiB5PSI5OTMuMTg3NSI+LXN0YXR1czwvdGV4dD48dGV4dCBmaWxsPSIjMDAwMDAwIiBmb250LWZhbWlseT0ic2Fucy1zZXJpZiIgZm9udC1zaXplPSIxNCIgbGVuZ3RoQWRqdXN0PSJzcGFjaW5nIiB0ZXh0TGVuZ3RoPSI3MCIgeD0iMTEwNyIgeT0iMTAwOC4xNzE5Ij4tc2Vzc2lvbklkPC90ZXh0Pjx0ZXh0IGZpbGw9IiMwMDAwMDAiIGZvbnQtZmFtaWx5PSJzYW5zLXNlcmlmIiBmb250LXNpemU9IjE0IiBsZW5ndGhBZGp1c3Q9InNwYWNpbmciIHRleHRMZW5ndGg9IjU3IiB4PSIxMTA3IiB5PSIxMDIzLjE1NjMiPi1yZW1hcmtzPC90ZXh0PjxsaW5lIHN0eWxlPSJzdHJva2U6IzAwMDAwMDtzdHJva2Utd2lkdGg6MC41OyIgeDE9IjExMDIiIHgyPSIxMzM4IiB5MT0iMTAyOC45MDYzIiB5Mj0iMTAyOC45MDYzIi8+PHRleHQgZmlsbD0iIzAwMDAwMCIgZm9udC1mYW1pbHk9InNhbnMtc2VyaWYiIGZvbnQtc2l6ZT0iMTQiIGxlbmd0aEFkanVzdD0ic3BhY2luZyIgdGV4dExlbmd0aD0iMTIyIiB4PSIxMTA3IiB5PSIxMDQ2LjE0MDYiPittYXJrQXR0ZW5kYW5jZSgpPC90ZXh0Pjx0ZXh0IGZpbGw9IiMwMDAwMDAiIGZvbnQtZmFtaWx5PSJzYW5zLXNlcmlmIiBmb250LXNpemU9IjE0IiBsZW5ndGhBZGp1c3Q9InNwYWNpbmciIHRleHRMZW5ndGg9IjEzNSIgeD0iMTEwNyIgeT0iMTA2MS4xMjUiPit1cGRhdGVBdHRlbmRhbmNlKCk8L3RleHQ+PHRleHQgZmlsbD0iIzAwMDAwMCIgZm9udC1mYW1pbHk9InNhbnMtc2VyaWYiIGZvbnQtc2l6ZT0iMTQiIGxlbmd0aEFkanVzdD0ic3BhY2luZyIgdGV4dExlbmd0aD0iMjI2IiB4PSIxMTA3IiB5PSIxMDc2LjEwOTQiPitjYWxjdWxhdGVBdHRlbmRhbmNlUGVyY2VudGFnZSgpPC90ZXh0Pjx0ZXh0IGZpbGw9IiMwMDAwMDAiIGZvbnQtZmFtaWx5PSJzYW5zLXNlcmlmIiBmb250LXNpemU9IjE0IiBsZW5ndGhBZGp1c3Q9InNwYWNpbmciIHRleHRMZW5ndGg9IjE5MSIgeD0iMTEwNyIgeT0iMTA5MS4wOTM4Ij4rZ2VuZXJhdGVBdHRlbmRhbmNlUmVwb3J0KCk8L3RleHQ+PC9nPjwhLS1jbGFzcyBMb2ctLT48ZyBpZD0iZWxlbV9Mb2ciPjxyZWN0IGNvZGVMaW5lPSIxOTQiIGZpbGw9IiNGRkZGRkYiIGhlaWdodD0iMTE1LjkwNjMiIGlkPSJMb2ciIHJ4PSIyLjUiIHJ5PSIyLjUiIHN0eWxlPSJzdHJva2U6IzAwMDAwMDtzdHJva2Utd2lkdGg6MC41OyIgd2lkdGg9Ijg0IiB4PSI4MjgiIHk9IjIwMDAiLz48dGV4dCBmaWxsPSIjMDAwMDAwIiBmb250LWZhbWlseT0ic2Fucy1zZXJpZiIgZm9udC1zaXplPSIxNCIgbGVuZ3RoQWRqdXN0PSJzcGFjaW5nIiB0ZXh0TGVuZ3RoPSIyMSIgeD0iODU5LjUiIHk9IjIwMTguMjM0NCI+TG9nPC90ZXh0PjxsaW5lIHN0eWxlPSJzdHJva2U6IzAwMDAwMDtzdHJva2Utd2lkdGg6MC41OyIgeDE9IjgyOSIgeDI9IjkxMSIgeTE9IjIwMjQuOTg0NCIgeTI9IjIwMjQuOTg0NCIvPjx0ZXh0IGZpbGw9IiMwMDAwMDAiIGZvbnQtZmFtaWx5PSJzYW5zLXNlcmlmIiBmb250LXNpemU9IjE0IiBsZW5ndGhBZGp1c3Q9InNwYWNpbmciIHRleHRMZW5ndGg9IjIxIiB4PSI4MzQiIHk9IjIwNDIuMjE4OCI+I2lkPC90ZXh0Pjx0ZXh0IGZpbGw9IiMwMDAwMDAiIGZvbnQtZmFtaWx5PSJzYW5zLXNlcmlmIiBmb250LXNpemU9IjE0IiBsZW5ndGhBZGp1c3Q9InNwYWNpbmciIHRleHRMZW5ndGg9IjQ5IiB4PSI4MzQiIHk9IjIwNTcuMjAzMSI+I2FjdGlvbjwvdGV4dD48dGV4dCBmaWxsPSIjMDAwMDAwIiBmb250LWZhbWlseT0ic2Fucy1zZXJpZiIgZm9udC1zaXplPSIxNCIgbGVuZ3RoQWRqdXN0PSJzcGFjaW5nIiB0ZXh0TGVuZ3RoPSI3MiIgeD0iODM0IiB5PSIyMDcyLjE4NzUiPiN0aW1lc3RhbXA8L3RleHQ+PHRleHQgZmlsbD0iIzAwMDAwMCIgZm9udC1mYW1pbHk9InNhbnMtc2VyaWYiIGZvbnQtc2l6ZT0iMTQiIGxlbmd0aEFkanVzdD0ic3BhY2luZyIgdGV4dExlbmd0aD0iNTYiIHg9IjgzNCIgeT0iMjA4Ny4xNzE5Ij4jZGV0YWlsczwvdGV4dD48dGV4dCBmaWxsPSIjMDAwMDAwIiBmb250LWZhbWlseT0ic2Fucy1zZXJpZiIgZm9udC1zaXplPSIxNCIgbGVuZ3RoQWRqdXN0PSJzcGFjaW5nIiB0ZXh0TGVuZ3RoPSI3MCIgeD0iODM0IiB5PSIyMTAyLjE1NjMiPiNpcEFkZHJlc3M8L3RleHQ+PGxpbmUgc3R5bGU9InN0cm9rZTojMDAwMDAwO3N0cm9rZS13aWR0aDowLjU7IiB4MT0iODI5IiB4Mj0iOTExIiB5MT0iMjEwNy45MDYzIiB5Mj0iMjEwNy45MDYzIi8+PC9nPjwhLS1yZXZlcnNlIGxpbmsgVXNlciB0byBTdHVkZW50LS0+PGcgaWQ9ImxpbmtfVXNlcl9TdHVkZW50Ij48cGF0aCBjb2RlTGluZT0iMjAzIiBkPSJNOTAwLjc1LDE2MjUuODYgQzkwMC43NSwxMjE0LjQ0IDkwMC43NSwxMDYgOTAwLjc1LDEwNiBDOTAwLjc1LDEwNiA4MjYuNjQsMTA2IDc2My41NCwxMDYgIiBmaWxsPSJub25lIiBpZD0iVXNlci1iYWNrdG8tU3R1ZGVudCIgc3R5bGU9InN0cm9rZTojMDAwMDAwO3N0cm9rZS13aWR0aDoxLjA7Ii8+PHBvbHlnb24gZmlsbD0ibm9uZSIgcG9pbnRzPSI5MDAuNzUsMTY0My44Niw5MDYuNzUsMTYyNS44Niw4OTQuNzUsMTYyNS44Niw5MDAuNzUsMTY0My44NiIgc3R5bGU9InN0cm9rZTojMDAwMDAwO3N0cm9rZS13aWR0aDoxLjA7Ii8+PC9nPjwhLS1yZXZlcnNlIGxpbmsgVXNlciB0byBUZWFjaGVyLS0+PGcgaWQ9ImxpbmtfVXNlcl9UZWFjaGVyIj48cGF0aCBjb2RlTGluZT0iMjA0IiBkPSJNODQyLjc1LDE2MjUuOTkgQzg0Mi43NSwxMzQ5IDg0Mi43NSw3OTggODQyLjc1LDc5OCBDODQyLjc1LDc5OCA3OTIuMDUsNzk4IDc0NS4xMSw3OTggIiBmaWxsPSJub25lIiBpZD0iVXNlci1iYWNrdG8tVGVhY2hlciIgc3R5bGU9InN0cm9rZTojMDAwMDAwO3N0cm9rZS13aWR0aDoxLjA7Ii8+PHBvbHlnb24gZmlsbD0ibm9uZSIgcG9pbnRzPSI4NDIuNzUsMTY0My45OSw4NDguNzUsMTYyNS45OSw4MzYuNzUsMTYyNS45OSw4NDIuNzUsMTY0My45OSIgc3R5bGU9InN0cm9rZTojMDAwMDAwO3N0cm9rZS13aWR0aDoxLjA7Ii8+PC9nPjwhLS1yZXZlcnNlIGxpbmsgVXNlciB0byBQcmluY2lwYWwtLT48ZyBpZD0ibGlua19Vc2VyX1ByaW5jaXBhbCI+PHBhdGggY29kZUxpbmU9IjIwNSIgZD0iTTgyOS42MiwxNjI1Ljk0IEM4MjkuNjIsMTQ3MC45OSA4MjkuNjIsMTI2OCA4MjkuNjIsMTI2OCBDODI5LjYyLDEyNjggODA0LjIyLDEyNjggNzczLjU1LDEyNjggIiBmaWxsPSJub25lIiBpZD0iVXNlci1iYWNrdG8tUHJpbmNpcGFsIiBzdHlsZT0ic3Ryb2tlOiMwMDAwMDA7c3Ryb2tlLXdpZHRoOjEuMDsiLz48cG9seWdvbiBmaWxsPSJub25lIiBwb2ludHM9IjgyOS42MiwxNjQzLjk0LDgzNS42MiwxNjI1Ljk0LDgyMy42MiwxNjI1Ljk0LDgyOS42MiwxNjQzLjk0IiBzdHlsZT0ic3Ryb2tlOiMwMDAwMDA7c3Ryb2tlLXdpZHRoOjEuMDsiLz48L2c+PCEtLXJldmVyc2UgbGluayBVc2VyIHRvIEFkbWluLS0+PGcgaWQ9ImxpbmtfVXNlcl9BZG1pbiI+PHBhdGggY29kZUxpbmU9IjIwNiIgZD0iTTgwMC44MywxNjI1Ljk1IEM4MDAuODMsMTYwNS4zMyA4MDAuODMsMTYwMi44MiA4MDAuODMsMTU4NC4xICIgZmlsbD0ibm9uZSIgaWQ9IlVzZXItYmFja3RvLUFkbWluIiBzdHlsZT0ic3Ryb2tlOiMwMDAwMDA7c3Ryb2tlLXdpZHRoOjEuMDsiLz48cG9seWdvbiBmaWxsPSJub25lIiBwb2ludHM9IjgwMC44MywxNjQzLjk1LDgwNi44MywxNjI1Ljk1LDc5NC44MywxNjI1Ljk1LDgwMC44MywxNjQzLjk1IiBzdHlsZT0ic3Ryb2tlOiMwMDAwMDA7c3Ryb2tlLXdpZHRoOjEuMDsiLz48L2c+PCEtLWxpbmsgQWRtaW4gdG8gVXNlci0tPjxnIGlkPSJsaW5rX0FkbWluX1VzZXIiPjxwYXRoIGNvZGVMaW5lPSIyNDIiIGQ9Ik04MDguNjcsMTU4NC4yNSBDODA4LjY3LDE2MDIuOTIgODA4LjY3LDE2MjMuMzYgODA4LjY3LDE2NDMuOTEgIiBmaWxsPSJub25lIiBpZD0iQWRtaW4tVXNlciIgc3R5bGU9InN0cm9rZTojMDAwMDAwO3N0cm9rZS13aWR0aDoxLjA7Ii8+PHRleHQgZmlsbD0iIzAwMDAwMCIgZm9udC1mYW1pbHk9InNhbnMtc2VyaWYiIGZvbnQtc2l6ZT0iMTMiIGxlbmd0aEFkanVzdD0ic3BhY2luZyIgdGV4dExlbmd0aD0iNDgiIHg9Ijc1OS42NyIgeT0iMTYxMi4zNjkxIj5tYW5hZ2VzPC90ZXh0Pjx0ZXh0IGZpbGw9IiMwMDAwMDAiIGZvbnQtZmFtaWx5PSJzYW5zLXNlcmlmIiBmb250LXNpemU9IjEzIiBsZW5ndGhBZGp1c3Q9InNwYWNpbmciIHRleHRMZW5ndGg9IjciIHg9IjgwOC41NTk2IiB5PSIxNjA0LjA4MjQiPjE8L3RleHQ+PHRleHQgZmlsbD0iIzAwMDAwMCIgZm9udC1mYW1pbHk9InNhbnMtc2VyaWYiIGZvbnQtc2l6ZT0iMTMiIGxlbmd0aEFkanVzdD0ic3BhY2luZyIgdGV4dExlbmd0aD0iMTMiIHg9Ijc5MS43NDg2IiB5PSIxNjM0LjI5NjQiPiYjMTAwMzM7PC90ZXh0PjwvZz48IS0tcmV2ZXJzZSBsaW5rIFRlYWNoZXIgdG8gU2VjdGlvbmFsSGVhZC0tPjxnIGlkPSJsaW5rX1RlYWNoZXJfU2VjdGlvbmFsSGVhZCI+PHBhdGggY29kZUxpbmU9IjIwNyIgZD0iTTY1MS40LDg2NC4wNiBDNjUxLjQsODk3Ljc2IDY1MS40LDkxOS4yMiA2NTEuNCw5NTAuODcgIiBmaWxsPSJub25lIiBpZD0iVGVhY2hlci1iYWNrdG8tU2VjdGlvbmFsSGVhZCIgc3R5bGU9InN0cm9rZTojMDAwMDAwO3N0cm9rZS13aWR0aDoxLjA7Ii8+PHBvbHlnb24gZmlsbD0ibm9uZSIgcG9pbnRzPSI2NTEuNCw4NDYuMDYsNjQ1LjQsODY0LjA2LDY1Ny40LDg2NC4wNiw2NTEuNCw4NDYuMDYiIHN0eWxlPSJzdHJva2U6IzAwMDAwMDtzdHJva2Utd2lkdGg6MS4wOyIvPjwvZz48IS0tbGluayBTZWN0aW9uYWxIZWFkIHRvIFRlYWNoZXItLT48ZyBpZD0ibGlua19TZWN0aW9uYWxIZWFkX1RlYWNoZXIiPjxwYXRoIGNvZGVMaW5lPSIyMzkiIGQ9Ik02ODIuNiw5NTAuOTcgQzY4Mi42LDkxOS4zIDY4Mi42LDg3OS43OSA2ODIuNiw4NDYuMDUgIiBmaWxsPSJub25lIiBpZD0iU2VjdGlvbmFsSGVhZC1UZWFjaGVyIiBzdHlsZT0ic3Ryb2tlOiMwMDAwMDA7c3Ryb2tlLXdpZHRoOjEuMDsiLz48dGV4dCBmaWxsPSIjMDAwMDAwIiBmb250LWZhbWlseT0ic2Fucy1zZXJpZiIgZm9udC1zaXplPSIxMyIgbGVuZ3RoQWRqdXN0PSJzcGFjaW5nIiB0ZXh0TGVuZ3RoPSI2OSIgeD0iNjEyLjYiIHk9Ijg5Ni43OTkxIj5zdXBlcnZpc2VzPC90ZXh0Pjx0ZXh0IGZpbGw9IiMwMDAwMDAiIGZvbnQtZmFtaWx5PSJzYW5zLXNlcmlmIiBmb250LXNpemU9IjEzIiBsZW5ndGhBZGp1c3Q9InNwYWNpbmciIHRleHRMZW5ndGg9IjciIHg9IjY3Ny4zMDE2IiB5PSI5NDEuMjU1NCI+MTwvdGV4dD48dGV4dCBmaWxsPSIjMDAwMDAwIiBmb250LWZhbWlseT0ic2Fucy1zZXJpZiIgZm9udC1zaXplPSIxMyIgbGVuZ3RoQWRqdXN0PSJzcGFjaW5nIiB0ZXh0TGVuZ3RoPSIxMyIgeD0iNjcwLjQ5NTgiIHk9Ijg2Ni4yMjA5Ij4mIzEwMDMzOzwvdGV4dD48L2c+PCEtLXJldmVyc2UgbGluayBTZWN0aW9uYWxIZWFkIHRvIFByaW5jaXBhbC0tPjxnIGlkPSJsaW5rX1NlY3Rpb25hbEhlYWRfUHJpbmNpcGFsIj48cGF0aCBjb2RlTGluZT0iMjA4IiBkPSJNNjM3LjgzLDEwODUuMDEgQzYzNy44MywxMTE1LjkgNjM3LjgzLDExMzYuNjggNjM3LjgzLDExNzEuODggIiBmaWxsPSJub25lIiBpZD0iU2VjdGlvbmFsSGVhZC1iYWNrdG8tUHJpbmNpcGFsIiBzdHlsZT0ic3Ryb2tlOiMwMDAwMDA7c3Ryb2tlLXdpZHRoOjEuMDsiLz48cG9seWdvbiBmaWxsPSJub25lIiBwb2ludHM9IjYzNy44MywxMDY3LjAxLDYzMS44MywxMDg1LjAxLDY0My44MywxMDg1LjAxLDYzNy44MywxMDY3LjAxIiBzdHlsZT0ic3Ryb2tlOiMwMDAwMDA7c3Ryb2tlLXdpZHRoOjEuMDsiLz48L2c+PCEtLWxpbmsgUHJpbmNpcGFsIHRvIFNlY3Rpb25hbEhlYWQtLT48ZyBpZD0ibGlua19QcmluY2lwYWxfU2VjdGlvbmFsSGVhZCI+PHBhdGggY29kZUxpbmU9IjI0MSIgZD0iTTY5Ni4xNywxMTcxLjk4IEM2OTYuMTcsMTEzNi44OSA2OTYuMTcsMTA5OC4yMyA2OTYuMTcsMTA2Ny4zNyAiIGZpbGw9Im5vbmUiIGlkPSJQcmluY2lwYWwtU2VjdGlvbmFsSGVhZCIgc3R5bGU9InN0cm9rZTojMDAwMDAwO3N0cm9rZS13aWR0aDoxLjA7Ii8+PHRleHQgZmlsbD0iIzAwMDAwMCIgZm9udC1mYW1pbHk9InNhbnMtc2VyaWYiIGZvbnQtc2l6ZT0iMTMiIGxlbmd0aEFkanVzdD0ic3BhY2luZyIgdGV4dExlbmd0aD0iNDgiIHg9IjY0Ny4xNyIgeT0iMTExNy45NTkxIj5tYW5hZ2VzPC90ZXh0Pjx0ZXh0IGZpbGw9IiMwMDAwMDAiIGZvbnQtZmFtaWx5PSJzYW5zLXNlcmlmIiBmb250LXNpemU9IjEzIiBsZW5ndGhBZGp1c3Q9InNwYWNpbmciIHRleHRMZW5ndGg9IjciIHg9IjY5MS4zNjcyIiB5PSIxMTYyLjIzMTMiPjE8L3RleHQ+PHRleHQgZmlsbD0iIzAwMDAwMCIgZm9udC1mYW1pbHk9InNhbnMtc2VyaWYiIGZvbnQtc2l6ZT0iMTMiIGxlbmd0aEFkanVzdD0ic3BhY2luZyIgdGV4dExlbmd0aD0iMTMiIHg9IjY4NS43OTEyIiB5PSIxMDg3LjIxNzkiPiYjMTAwMzM7PC90ZXh0PjwvZz48IS0tcmV2ZXJzZSBsaW5rIFByaW5jaXBhbCB0byBBZG1pbi0tPjxnIGlkPSJsaW5rX1ByaW5jaXBhbF9BZG1pbiI+PHBhdGggY29kZUxpbmU9IjIwOSIgZD0iTTcwMy41LDEzODEuMTUgQzcwMy41LDE0MDAuOTUgNzAzLjUsMTQwMy42MyA3MDMuNSwxNDIyLjg0ICIgZmlsbD0ibm9uZSIgaWQ9IlByaW5jaXBhbC1iYWNrdG8tQWRtaW4iIHN0eWxlPSJzdHJva2U6IzAwMDAwMDtzdHJva2Utd2lkdGg6MS4wOyIvPjxwb2x5Z29uIGZpbGw9Im5vbmUiIHBvaW50cz0iNzAzLjUsMTM2My4xNSw2OTcuNSwxMzgxLjE1LDcwOS41LDEzODEuMTUsNzAzLjUsMTM2My4xNSIgc3R5bGU9InN0cm9rZTojMDAwMDAwO3N0cm9rZS13aWR0aDoxLjA7Ii8+PC9nPjwhLS1yZXZlcnNlIGxpbmsgVXNlciB0byBMb2ctLT48ZyBpZD0ibGlua19Vc2VyX0xvZyI+PHBhdGggY29kZUxpbmU9IjIxMiIgZD0iTTg3MCwxOTUyLjE3IEM4NzAsMTk3My4yOCA4NzAsMTk4MS44OCA4NzAsMTk5OS44ICIgZmlsbD0ibm9uZSIgaWQ9IlVzZXItYmFja3RvLUxvZyIgc3R5bGU9InN0cm9rZTojMDAwMDAwO3N0cm9rZS13aWR0aDoxLjA7Ii8+PHBvbHlnb24gZmlsbD0iIzAwMDAwMCIgcG9pbnRzPSI4NzAsMTk0MC4xNyw4NjYsMTk0Ni4xNyw4NzAsMTk1Mi4xNyw4NzQsMTk0Ni4xNyw4NzAsMTk0MC4xNyIgc3R5bGU9InN0cm9rZTojMDAwMDAwO3N0cm9rZS13aWR0aDoxLjA7Ii8+PHRleHQgZmlsbD0iIzAwMDAwMCIgZm9udC1mYW1pbHk9InNhbnMtc2VyaWYiIGZvbnQtc2l6ZT0iMTMiIGxlbmd0aEFkanVzdD0ic3BhY2luZyIgdGV4dExlbmd0aD0iNyIgeD0iODYyLjgzMDUiIHk9IjE5NTkuOTc5OCI+MTwvdGV4dD48dGV4dCBmaWxsPSIjMDAwMDAwIiBmb250LWZhbWlseT0ic2Fucy1zZXJpZiIgZm9udC1zaXplPSIxMyIgbGVuZ3RoQWRqdXN0PSJzcGFjaW5nIiB0ZXh0TGVuZ3RoPSIxMyIgeD0iODU2LjEyNjYiIHk9IjE5OTAuNDYyNyI+JiMxMDAzMzs8L3RleHQ+PC9nPjwhLS1yZXZlcnNlIGxpbmsgVGVhY2hlciB0byBTdWJqZWN0LS0+PGcgaWQ9ImxpbmtfVGVhY2hlcl9TdWJqZWN0Ij48cGF0aCBjb2RlTGluZT0iMjEzIiBkPSJNNTc2Ljk3LDc4OCBDNTIwLjcyLDc4OCA0NjYuNjcsNzg4IDQ2Ni42Nyw3ODggQzQ2Ni42Nyw3ODggNDY2LjY3LDE1MDIuNzYgNDY2LjY3LDE3MjYuMTIgIiBmaWxsPSJub25lIiBpZD0iVGVhY2hlci1iYWNrdG8tU3ViamVjdCIgc3R5bGU9InN0cm9rZTojMDAwMDAwO3N0cm9rZS13aWR0aDoxLjA7Ii8+PHBvbHlnb24gZmlsbD0iIzAwMDAwMCIgcG9pbnRzPSI1ODguOTcsNzg4LDU4Mi45Nyw3ODQsNTc2Ljk3LDc4OCw1ODIuOTcsNzkyLDU4OC45Nyw3ODgiIHN0eWxlPSJzdHJva2U6IzAwMDAwMDtzdHJva2Utd2lkdGg6MS4wOyIvPjx0ZXh0IGZpbGw9IiMwMDAwMDAiIGZvbnQtZmFtaWx5PSJzYW5zLXNlcmlmIiBmb250LXNpemU9IjEzIiBsZW5ndGhBZGp1c3Q9InNwYWNpbmciIHRleHRMZW5ndGg9IjciIHg9IjU3My45NDQ0IiB5PSI3ODguMTc2OSI+MTwvdGV4dD48dGV4dCBmaWxsPSIjMDAwMDAwIiBmb250LWZhbWlseT0ic2Fucy1zZXJpZiIgZm9udC1zaXplPSIxMyIgbGVuZ3RoQWRqdXN0PSJzcGFjaW5nIiB0ZXh0TGVuZ3RoPSIxMyIgeD0iNDcyLjEyNCIgeT0iMTcxNy4wOTkzIj4mIzEwMDMzOzwvdGV4dD48L2c+PCEtLXJldmVyc2UgbGluayBUZWFjaGVyIHRvIFN1YmplY3QtLT48ZyBpZD0ibGlua19UZWFjaGVyX1N1YmplY3QiPjxwYXRoIGNvZGVMaW5lPSIyMjQiIGQ9Ik01NzYuOTcsODE3IEM1MjQuODYsODE3IDQ3Ny44Myw4MTcgNDc3LjgzLDgxNyBDNDc3LjgzLDgxNyA0NzcuODMsMTUwNy4xMSA0NzcuODMsMTcyNi4xMyAiIGZpbGw9Im5vbmUiIGlkPSJUZWFjaGVyLWJhY2t0by1TdWJqZWN0LTEiIHN0eWxlPSJzdHJva2U6IzAwMDAwMDtzdHJva2Utd2lkdGg6MS4wOyIvPjxwb2x5Z29uIGZpbGw9Im5vbmUiIHBvaW50cz0iNTg4Ljk3LDgxNyw1ODIuOTcsODEzLDU3Ni45Nyw4MTcsNTgyLjk3LDgyMSw1ODguOTcsODE3IiBzdHlsZT0ic3Ryb2tlOiMwMDAwMDA7c3Ryb2tlLXdpZHRoOjEuMDsiLz48dGV4dCBmaWxsPSIjMDAwMDAwIiBmb250LWZhbWlseT0ic2Fucy1zZXJpZiIgZm9udC1zaXplPSIxMyIgbGVuZ3RoQWRqdXN0PSJzcGFjaW5nIiB0ZXh0TGVuZ3RoPSI0OCIgeD0iNDI4LjgzIiB5PSIxMjE0LjI4OTEiPnRlYWNoZXM8L3RleHQ+PHRleHQgZmlsbD0iIzAwMDAwMCIgZm9udC1mYW1pbHk9InNhbnMtc2VyaWYiIGZvbnQtc2l6ZT0iMTMiIGxlbmd0aEFkanVzdD0ic3BhY2luZyIgdGV4dExlbmd0aD0iNyIgeD0iNTczLjk0NDQiIHk9IjgyMC4wMzE2Ij4xPC90ZXh0Pjx0ZXh0IGZpbGw9IiMwMDAwMDAiIGZvbnQtZmFtaWx5PSJzYW5zLXNlcmlmIiBmb250LXNpemU9IjEzIiBsZW5ndGhBZGp1c3Q9InNwYWNpbmciIHRleHRMZW5ndGg9IjEzIiB4PSI0ODQuOTM5IiB5PSIxNzE2LjY2MTMiPiYjMTAwMzM7PC90ZXh0PjwvZz48IS0tcmV2ZXJzZSBsaW5rIFRpbWVUYWJsZSB0byBTZXNzaW9uLS0+PGcgaWQ9ImxpbmtfVGltZVRhYmxlX1Nlc3Npb24iPjxwYXRoIGNvZGVMaW5lPSIyMTQiIGQ9Ik0zMjMuMjUsMTM1Mi41NiBDMzIzLjI1LDEzNzguNjggMzIzLjI1LDEzOTYuMjcgMzIzLjI1LDE0MjIuOTkgIiBmaWxsPSJub25lIiBpZD0iVGltZVRhYmxlLWJhY2t0by1TZXNzaW9uIiBzdHlsZT0ic3Ryb2tlOiMwMDAwMDA7c3Ryb2tlLXdpZHRoOjEuMDsiLz48cG9seWdvbiBmaWxsPSIjMDAwMDAwIiBwb2ludHM9IjMyMy4yNSwxMzQwLjU2LDMxOS4yNSwxMzQ2LjU2LDMyMy4yNSwxMzUyLjU2LDMyNy4yNSwxMzQ2LjU2LDMyMy4yNSwxMzQwLjU2IiBzdHlsZT0ic3Ryb2tlOiMwMDAwMDA7c3Ryb2tlLXdpZHRoOjEuMDsiLz48dGV4dCBmaWxsPSIjMDAwMDAwIiBmb250LWZhbWlseT0ic2Fucy1zZXJpZiIgZm9udC1zaXplPSIxMyIgbGVuZ3RoQWRqdXN0PSJzcGFjaW5nIiB0ZXh0TGVuZ3RoPSI3IiB4PSIzMjAuNDU4MiIgeT0iMTM2MC43MzE5Ij4xPC90ZXh0Pjx0ZXh0IGZpbGw9IiMwMDAwMDAiIGZvbnQtZmFtaWx5PSJzYW5zLXNlcmlmIiBmb250LXNpemU9IjEzIiBsZW5ndGhBZGp1c3Q9InNwYWNpbmciIHRleHRMZW5ndGg9IjEzIiB4PSIzMDUuODkzIiB5PSIxNDEzLjM2MDUiPiYjMTAwMzM7PC90ZXh0PjwvZz48IS0tcmV2ZXJzZSBsaW5rIEV4YW0gdG8gRXhhbVJlc3VsdC0tPjxnIGlkPSJsaW5rX0V4YW1fRXhhbVJlc3VsdCI+PHBhdGggY29kZUxpbmU9IjIxNSIgZD0iTTg1NS44OCw0MTYuMDYgQzg1NS44OCw1OTIuODMgODU1Ljg4LDkyMyA4NTUuODgsOTIzIEM4NTUuODgsOTIzIDg5NS4wOSw5MjMgOTMyLjQ3LDkyMyAiIGZpbGw9Im5vbmUiIGlkPSJFeGFtLWJhY2t0by1FeGFtUmVzdWx0IiBzdHlsZT0ic3Ryb2tlOiMwMDAwMDA7c3Ryb2tlLXdpZHRoOjEuMDsiLz48cG9seWdvbiBmaWxsPSIjMDAwMDAwIiBwb2ludHM9Ijg1NS44OCw0MDQuMDYsODUxLjg4LDQxMC4wNiw4NTUuODgsNDE2LjA2LDg1OS44OCw0MTAuMDYsODU1Ljg4LDQwNC4wNiIgc3R5bGU9InN0cm9rZTojMDAwMDAwO3N0cm9rZS13aWR0aDoxLjA7Ii8+PHRleHQgZmlsbD0iIzAwMDAwMCIgZm9udC1mYW1pbHk9InNhbnMtc2VyaWYiIGZvbnQtc2l6ZT0iMTMiIGxlbmd0aEFkanVzdD0ic3BhY2luZyIgdGV4dExlbmd0aD0iNyIgeD0iODUyLjYzMzMiIHk9IjQyNC4wOTEyIj4xPC90ZXh0Pjx0ZXh0IGZpbGw9IiMwMDAwMDAiIGZvbnQtZmFtaWx5PSJzYW5zLXNlcmlmIiBmb250LXNpemU9IjEzIiBsZW5ndGhBZGp1c3Q9InNwYWNpbmciIHRleHRMZW5ndGg9IjEzIiB4PSI5MTEuNDgyMyIgeT0iOTEyLjIzMTMiPiYjMTAwMzM7PC90ZXh0PjwvZz48IS0tcmV2ZXJzZSBsaW5rIFNlc3Npb24gdG8gU3ViamVjdC0tPjxnIGlkPSJsaW5rX1Nlc3Npb25fU3ViamVjdCI+PHBhdGggY29kZUxpbmU9IjIxOCIgZD0iTTM5Mi41LDE1OTYuMjUgQzM5Mi41LDE2NDEuMDkgMzkyLjUsMTY4NC4xNiAzOTIuNSwxNzI2LjMzICIgZmlsbD0ibm9uZSIgaWQ9IlNlc3Npb24tYmFja3RvLVN1YmplY3QiIHN0eWxlPSJzdHJva2U6IzAwMDAwMDtzdHJva2Utd2lkdGg6MS4wOyIvPjxwb2x5Z29uIGZpbGw9Im5vbmUiIHBvaW50cz0iMzkyLjUsMTU4NC4yNSwzODguNSwxNTkwLjI1LDM5Mi41LDE1OTYuMjUsMzk2LjUsMTU5MC4yNSwzOTIuNSwxNTg0LjI1IiBzdHlsZT0ic3Ryb2tlOiMwMDAwMDA7c3Ryb2tlLXdpZHRoOjEuMDsiLz48dGV4dCBmaWxsPSIjMDAwMDAwIiBmb250LWZhbWlseT0ic2Fucy1zZXJpZiIgZm9udC1zaXplPSIxMyIgbGVuZ3RoQWRqdXN0PSJzcGFjaW5nIiB0ZXh0TGVuZ3RoPSIyMSIgeD0iMzcwLjUiIHk9IjE2NTMuNTc5MSI+aGFzPC90ZXh0Pjx0ZXh0IGZpbGw9IiMwMDAwMDAiIGZvbnQtZmFtaWx5PSJzYW5zLXNlcmlmIiBmb250LXNpemU9IjEzIiBsZW5ndGhBZGp1c3Q9InNwYWNpbmciIHRleHRMZW5ndGg9IjciIHg9IjM4OC4wNzgxIiB5PSIxNjA0LjA4MjQiPjE8L3RleHQ+PHRleHQgZmlsbD0iIzAwMDAwMCIgZm9udC1mYW1pbHk9InNhbnMtc2VyaWYiIGZvbnQtc2l6ZT0iMTMiIGxlbmd0aEFkanVzdD0ic3BhY2luZyIgdGV4dExlbmd0aD0iNyIgeD0iMzgwLjk5MDYiIHk9IjE3MTYuODg1NyI+MTwvdGV4dD48L2c+PCEtLXJldmVyc2UgbGluayBBc3Nlc3NtZW50IHRvIFN1YmplY3QtLT48ZyBpZD0ibGlua19Bc3Nlc3NtZW50X1N1YmplY3QiPjxwYXRoIGNvZGVMaW5lPSIyMTkiIGQ9Ik0xNjcuMjYsMTEwOSBDMjcwLjU4LDExMDkgNDMzLjE3LDExMDkgNDMzLjE3LDExMDkgQzQzMy4xNywxMTA5IDQzMy4xNywxNTU1LjAyIDQzMy4xNywxNzI2LjIgIiBmaWxsPSJub25lIiBpZD0iQXNzZXNzbWVudC1iYWNrdG8tU3ViamVjdCIgc3R5bGU9InN0cm9rZTojMDAwMDAwO3N0cm9rZS13aWR0aDoxLjA7Ii8+PHBvbHlnb24gZmlsbD0ibm9uZSIgcG9pbnRzPSIxNTUuMjYsMTEwOSwxNjEuMjYsMTExMywxNjcuMjYsMTEwOSwxNjEuMjYsMTEwNSwxNTUuMjYsMTEwOSIgc3R5bGU9InN0cm9rZTojMDAwMDAwO3N0cm9rZS13aWR0aDoxLjA7Ii8+PHRleHQgZmlsbD0iIzAwMDAwMCIgZm9udC1mYW1pbHk9InNhbnMtc2VyaWYiIGZvbnQtc2l6ZT0iMTMiIGxlbmd0aEFkanVzdD0ic3BhY2luZyIgdGV4dExlbmd0aD0iMjEiIHg9IjQxMS4xNyIgeT0iMTI3Ni45MjkxIj5oYXM8L3RleHQ+PHRleHQgZmlsbD0iIzAwMDAwMCIgZm9udC1mYW1pbHk9InNhbnMtc2VyaWYiIGZvbnQtc2l6ZT0iMTMiIGxlbmd0aEFkanVzdD0ic3BhY2luZyIgdGV4dExlbmd0aD0iNyIgeD0iMTYyLjkxNDUiIHk9IjExMTcuNTQ3MiI+MTwvdGV4dD48dGV4dCBmaWxsPSIjMDAwMDAwIiBmb250LWZhbWlseT0ic2Fucy1zZXJpZiIgZm9udC1zaXplPSIxMyIgbGVuZ3RoQWRqdXN0PSJzcGFjaW5nIiB0ZXh0TGVuZ3RoPSI3IiB4PSI0MjYuNjE3MyIgeT0iMTcxNi43Mzk5Ij4xPC90ZXh0PjwvZz48IS0tcmV2ZXJzZSBsaW5rIEV4YW0gdG8gU3ViamVjdC0tPjxnIGlkPSJsaW5rX0V4YW1fU3ViamVjdCI+PHBhdGggY29kZUxpbmU9IjIyMCIgZD0iTTcxNi42NiwzMDEgQzYxNi4xNiwzMDEgNDU1LjUsMzAxIDQ1NS41LDMwMSBDNDU1LjUsMzAxIDQ1NS41LDE0MzguNzMgNDU1LjUsMTcyNi40OSAiIGZpbGw9Im5vbmUiIGlkPSJFeGFtLWJhY2t0by1TdWJqZWN0IiBzdHlsZT0ic3Ryb2tlOiMwMDAwMDA7c3Ryb2tlLXdpZHRoOjEuMDsiLz48cG9seWdvbiBmaWxsPSJub25lIiBwb2ludHM9IjcyOC42NiwzMDEsNzIyLjY2LDI5Nyw3MTYuNjYsMzAxLDcyMi42NiwzMDUsNzI4LjY2LDMwMSIgc3R5bGU9InN0cm9rZTojMDAwMDAwO3N0cm9rZS13aWR0aDoxLjA7Ii8+PHRleHQgZmlsbD0iIzAwMDAwMCIgZm9udC1mYW1pbHk9InNhbnMtc2VyaWYiIGZvbnQtc2l6ZT0iMTMiIGxlbmd0aEFkanVzdD0ic3BhY2luZyIgdGV4dExlbmd0aD0iMjEiIHg9IjQzMy41IiB5PSI4NzUuNDU5MSI+aGFzPC90ZXh0Pjx0ZXh0IGZpbGw9IiMwMDAwMDAiIGZvbnQtZmFtaWx5PSJzYW5zLXNlcmlmIiBmb250LXNpemU9IjEzIiBsZW5ndGhBZGp1c3Q9InNwYWNpbmciIHRleHRMZW5ndGg9IjciIHg9IjcxNC4wNDUzIiB5PSIyOTkuNjc1NSI+MTwvdGV4dD48dGV4dCBmaWxsPSIjMDAwMDAwIiBmb250LWZhbWlseT0ic2Fucy1zZXJpZiIgZm9udC1zaXplPSIxMyIgbGVuZ3RoQWRqdXN0PSJzcGFjaW5nIiB0ZXh0TGVuZ3RoPSI3IiB4PSI0NTkuNTIxOSIgeT0iMTcxNy4wNjUyIj4xPC90ZXh0PjwvZz48IS0tcmV2ZXJzZSBsaW5rIFN0dWRlbnQgdG8gQXR0ZW5kYW5jZS0tPjxnIGlkPSJsaW5rX1N0dWRlbnRfQXR0ZW5kYW5jZSI+PHBhdGggY29kZUxpbmU9IjIyMSIgZD0iTTc3NS43LDQwIEM5MzguNjMsNDAgMTI1OS42Nyw0MCAxMjU5LjY3LDQwIEMxMjU5LjY3LDQwIDEyNTkuNjcsNjgyIDEyNTkuNjcsOTIwLjg3ICIgZmlsbD0ibm9uZSIgaWQ9IlN0dWRlbnQtYmFja3RvLUF0dGVuZGFuY2UiIHN0eWxlPSJzdHJva2U6IzAwMDAwMDtzdHJva2Utd2lkdGg6MS4wOyIvPjxwb2x5Z29uIGZpbGw9Im5vbmUiIHBvaW50cz0iNzYzLjcsNDAsNzY5LjcsNDQsNzc1LjcsNDAsNzY5LjcsMzYsNzYzLjcsNDAiIHN0eWxlPSJzdHJva2U6IzAwMDAwMDtzdHJva2Utd2lkdGg6MS4wOyIvPjx0ZXh0IGZpbGw9IiMwMDAwMDAiIGZvbnQtZmFtaWx5PSJzYW5zLXNlcmlmIiBmb250LXNpemU9IjEzIiBsZW5ndGhBZGp1c3Q9InNwYWNpbmciIHRleHRMZW5ndGg9IjciIHg9Ijc3MS41Mzc1IiB5PSIzNS45ODE1Ij4xPC90ZXh0Pjx0ZXh0IGZpbGw9IiMwMDAwMDAiIGZvbnQtZmFtaWx5PSJzYW5zLXNlcmlmIiBmb250LXNpemU9IjEzIiBsZW5ndGhBZGp1c3Q9InNwYWNpbmciIHRleHRMZW5ndGg9IjEzIiB4PSIxMjQ5LjcyNzkiIHk9IjkxMS40ODQ3Ij4mIzEwMDMzOzwvdGV4dD48L2c+PCEtLXJldmVyc2UgbGluayBTdHVkZW50IHRvIFN1YmplY3QtLT48ZyBpZD0ibGlua19TdHVkZW50X1N1YmplY3QiPjxwYXRoIGNvZGVMaW5lPSIyMjIiIGQ9Ik01NzYuNDIsMTA2IEM1MTAuODEsMTA2IDQ0NC4zMywxMDYgNDQ0LjMzLDEwNiBDNDQ0LjMzLDEwNiA0NDQuMzMsMTQxNS42NCA0NDQuMzMsMTcyNi40MiAiIGZpbGw9Im5vbmUiIGlkPSJTdHVkZW50LWJhY2t0by1TdWJqZWN0IiBzdHlsZT0ic3Ryb2tlOiMwMDAwMDA7c3Ryb2tlLXdpZHRoOjEuMDsiLz48cG9seWdvbiBmaWxsPSJub25lIiBwb2ludHM9IjU4OC40MiwxMDYsNTgyLjQyLDEwMiw1NzYuNDIsMTA2LDU4Mi40MiwxMTAsNTg4LjQyLDEwNiIgc3R5bGU9InN0cm9rZTojMDAwMDAwO3N0cm9rZS13aWR0aDoxLjA7Ii8+PHRleHQgZmlsbD0iIzAwMDAwMCIgZm9udC1mYW1pbHk9InNhbnMtc2VyaWYiIGZvbnQtc2l6ZT0iMTMiIGxlbmd0aEFkanVzdD0ic3BhY2luZyIgdGV4dExlbmd0aD0iNDciIHg9IjM5Ni4zMyIgeT0iODQyLjQ1OTEiPnN0dWRpZXM8L3RleHQ+PHRleHQgZmlsbD0iIzAwMDAwMCIgZm9udC1mYW1pbHk9InNhbnMtc2VyaWYiIGZvbnQtc2l6ZT0iMTMiIGxlbmd0aEFkanVzdD0ic3BhY2luZyIgdGV4dExlbmd0aD0iNyIgeD0iNTczLjU5MjgiIHk9IjEwNy42NTM0Ij4xPC90ZXh0Pjx0ZXh0IGZpbGw9IiMwMDAwMDAiIGZvbnQtZmFtaWx5PSJzYW5zLXNlcmlmIiBmb250LXNpemU9IjEzIiBsZW5ndGhBZGp1c3Q9InNwYWNpbmciIHRleHRMZW5ndGg9IjEzIiB4PSI0NDcuMzU2MiIgeT0iMTcxNi45ODY3Ij4mIzEwMDMzOzwvdGV4dD48L2c+PCEtLXJldmVyc2UgbGluayBTdHVkZW50IHRvIEV4YW1SZXN1bHQtLT48ZyBpZD0ibGlua19TdHVkZW50X0V4YW1SZXN1bHQiPjxwYXRoIGNvZGVMaW5lPSIyMjMiIGQ9Ik03NzUuODMsNzMgQzg3MS40OCw3MyA5OTksNzMgOTk5LDczIEM5OTksNzMgOTk5LDY3NC42OCA5OTksOTEzLjIzICIgZmlsbD0ibm9uZSIgaWQ9IlN0dWRlbnQtYmFja3RvLUV4YW1SZXN1bHQiIHN0eWxlPSJzdHJva2U6IzAwMDAwMDtzdHJva2Utd2lkdGg6MS4wOyIvPjxwb2x5Z29uIGZpbGw9Im5vbmUiIHBvaW50cz0iNzYzLjgzLDczLDc2OS44Myw3Nyw3NzUuODMsNzMsNzY5LjgzLDY5LDc2My44Myw3MyIgc3R5bGU9InN0cm9rZTojMDAwMDAwO3N0cm9rZS13aWR0aDoxLjA7Ii8+PHRleHQgZmlsbD0iIzAwMDAwMCIgZm9udC1mYW1pbHk9InNhbnMtc2VyaWYiIGZvbnQtc2l6ZT0iMTMiIGxlbmd0aEFkanVzdD0ic3BhY2luZyIgdGV4dExlbmd0aD0iMjEiIHg9Ijk3NyIgeT0iMzczLjgxOTEiPmhhczwvdGV4dD48dGV4dCBmaWxsPSIjMDAwMDAwIiBmb250LWZhbWlseT0ic2Fucy1zZXJpZiIgZm9udC1zaXplPSIxMyIgbGVuZ3RoQWRqdXN0PSJzcGFjaW5nIiB0ZXh0TGVuZ3RoPSI3IiB4PSI3NzEuMzkzMyIgeT0iNzEuODM0NiI+MTwvdGV4dD48dGV4dCBmaWxsPSIjMDAwMDAwIiBmb250LWZhbWlseT0ic2Fucy1zZXJpZiIgZm9udC1zaXplPSIxMyIgbGVuZ3RoQWRqdXN0PSJzcGFjaW5nIiB0ZXh0TGVuZ3RoPSIxMyIgeD0iOTg1LjQ0MTQiIHk9IjkwMy43NzY5Ij4mIzEwMDMzOzwvdGV4dD48L2c+PCEtLXJldmVyc2UgbGluayBUZWFjaGVyIHRvIEV4YW1SZXN1bHQtLT48ZyBpZD0ibGlua19UZWFjaGVyX0V4YW1SZXN1bHQiPjxwYXRoIGNvZGVMaW5lPSIyMjUiIGQ9Ik03MTMuOCw4NTguMTQgQzcxMy44LDkwMy44MiA3MTMuOCw5NDIgNzEzLjgsOTQyIEM3MTMuOCw5NDIgODQ4LjIyLDk0MiA5MzIuNDksOTQyICIgZmlsbD0ibm9uZSIgaWQ9IlRlYWNoZXItYmFja3RvLUV4YW1SZXN1bHQiIHN0eWxlPSJzdHJva2U6IzAwMDAwMDtzdHJva2Utd2lkdGg6MS4wOyIvPjxwb2x5Z29uIGZpbGw9Im5vbmUiIHBvaW50cz0iNzEzLjgsODQ2LjE0LDcwOS44LDg1Mi4xNCw3MTMuOCw4NTguMTQsNzE3LjgsODUyLjE0LDcxMy44LDg0Ni4xNCIgc3R5bGU9InN0cm9rZTojMDAwMDAwO3N0cm9rZS13aWR0aDoxLjA7Ii8+PHRleHQgZmlsbD0iIzAwMDAwMCIgZm9udC1mYW1pbHk9InNhbnMtc2VyaWYiIGZvbnQtc2l6ZT0iMTMiIGxlbmd0aEFkanVzdD0ic3BhY2luZyIgdGV4dExlbmd0aD0iNjEiIHg9IjcxMy4yMiIgeT0iOTQwLjI4OTEiPmV2YWx1YXRlczwvdGV4dD48dGV4dCBmaWxsPSIjMDAwMDAwIiBmb250LWZhbWlseT0ic2Fucy1zZXJpZiIgZm9udC1zaXplPSIxMyIgbGVuZ3RoQWRqdXN0PSJzcGFjaW5nIiB0ZXh0TGVuZ3RoPSI3IiB4PSI3MTAuOTI3IiB5PSI4NjYuMDY5MyI+MTwvdGV4dD48dGV4dCBmaWxsPSIjMDAwMDAwIiBmb250LWZhbWlseT0ic2Fucy1zZXJpZiIgZm9udC1zaXplPSIxMyIgbGVuZ3RoQWRqdXN0PSJzcGFjaW5nIiB0ZXh0TGVuZ3RoPSIxMyIgeD0iOTExLjUwNDUiIHk9IjkzMy4zMDk0Ij4mIzEwMDMzOzwvdGV4dD48L2c+PCEtLXJldmVyc2UgbGluayBUZWFjaGVyIHRvIEF0dGVuZGFuY2UtLT48ZyBpZD0ibGlua19UZWFjaGVyX0F0dGVuZGFuY2UiPjxwYXRoIGNvZGVMaW5lPSIyMjYiIGQ9Ik03NTcuMjQsNzQ5IEM5MDAuOTUsNzQ5IDExODAuMzMsNzQ5IDExODAuMzMsNzQ5IEMxMTgwLjMzLDc0OSAxMTgwLjMzLDg0NS41NSAxMTgwLjMzLDkyMC45OCAiIGZpbGw9Im5vbmUiIGlkPSJUZWFjaGVyLWJhY2t0by1BdHRlbmRhbmNlIiBzdHlsZT0ic3Ryb2tlOiMwMDAwMDA7c3Ryb2tlLXdpZHRoOjEuMDsiLz48cG9seWdvbiBmaWxsPSJub25lIiBwb2ludHM9Ijc0NS4yNCw3NDksNzUxLjI0LDc1Myw3NTcuMjQsNzQ5LDc1MS4yNCw3NDUsNzQ1LjI0LDc0OSIgc3R5bGU9InN0cm9rZTojMDAwMDAwO3N0cm9rZS13aWR0aDoxLjA7Ii8+PHRleHQgZmlsbD0iIzAwMDAwMCIgZm9udC1mYW1pbHk9InNhbnMtc2VyaWYiIGZvbnQtc2l6ZT0iMTMiIGxlbmd0aEFkanVzdD0ic3BhY2luZyIgdGV4dExlbmd0aD0iMzQiIHg9IjEwMTMuNzgiIHk9Ijc0Ny4yODkxIj5tYXJrczwvdGV4dD48dGV4dCBmaWxsPSIjMDAwMDAwIiBmb250LWZhbWlseT0ic2Fucy1zZXJpZiIgZm9udC1zaXplPSIxMyIgbGVuZ3RoQWRqdXN0PSJzcGFjaW5nIiB0ZXh0TGVuZ3RoPSI3IiB4PSI3NTMuMDMwOCIgeT0iNzQ1LjQzMTUiPjE8L3RleHQ+PHRleHQgZmlsbD0iIzAwMDAwMCIgZm9udC1mYW1pbHk9InNhbnMtc2VyaWYiIGZvbnQtc2l6ZT0iMTMiIGxlbmd0aEFkanVzdD0ic3BhY2luZyIgdGV4dExlbmd0aD0iMTMiIHg9IjExNjIuOTI5NCIgeT0iOTExLjMxMTEiPiYjMTAwMzM7PC90ZXh0PjwvZz48IS0tbGluayBDbGFzcyB0byBUZWFjaGVyLS0+PGcgaWQ9ImxpbmtfQ2xhc3NfVGVhY2hlciI+PHBhdGggY29kZUxpbmU9IjIyNyIgZD0iTTYwNS43NSw2NDAuMyBDNjA1Ljc1LDY2MC4wMiA2MDUuNzUsNjgwLjcyIDYwNS43NSw2OTkuNzUgIiBmaWxsPSJub25lIiBpZD0iQ2xhc3MtVGVhY2hlciIgc3R5bGU9InN0cm9rZTojMDAwMDAwO3N0cm9rZS13aWR0aDoxLjA7Ii8+PHRleHQgZmlsbD0iIzAwMDAwMCIgZm9udC1mYW1pbHk9InNhbnMtc2VyaWYiIGZvbnQtc2l6ZT0iMTMiIGxlbmd0aEFkanVzdD0ic3BhY2luZyIgdGV4dExlbmd0aD0iNiIgeD0iNjAzLjQ3NTQiIHk9IjY2MC4xODYxIj4qPC90ZXh0Pjx0ZXh0IGZpbGw9IiMwMDAwMDAiIGZvbnQtZmFtaWx5PSJzYW5zLXNlcmlmIiBmb250LXNpemU9IjEzIiBsZW5ndGhBZGp1c3Q9InNwYWNpbmciIHRleHRMZW5ndGg9IjEzIiB4PSI1ODUuMzM5OCIgeT0iNjkwLjM3MzIiPiYjMTAwMzM7PC90ZXh0PjwvZz48IS0tcmV2ZXJzZSBsaW5rIENsYXNzIHRvIFN0dWRlbnQtLT48ZyBpZD0ibGlua19DbGFzc19TdHVkZW50Ij48cGF0aCBjb2RlTGluZT0iMjI4IiBkPSJNNjA1LjUsNDUxLjc3IEM2MDUuNSwzNTcuNjQgNjA1LjUsMjIyLjcxIDYwNS41LDEzOC4yNCAiIGZpbGw9Im5vbmUiIGlkPSJDbGFzcy1iYWNrdG8tU3R1ZGVudCIgc3R5bGU9InN0cm9rZTojMDAwMDAwO3N0cm9rZS13aWR0aDoxLjA7Ii8+PHBvbHlnb24gZmlsbD0ibm9uZSIgcG9pbnRzPSI2MDUuNSw0NjMuNzcsNjA5LjUsNDU3Ljc3LDYwNS41LDQ1MS43Nyw2MDEuNSw0NTcuNzcsNjA1LjUsNDYzLjc3IiBzdHlsZT0ic3Ryb2tlOiMwMDAwMDA7c3Ryb2tlLXdpZHRoOjEuMDsiLz48dGV4dCBmaWxsPSIjMDAwMDAwIiBmb250LWZhbWlseT0ic2Fucy1zZXJpZiIgZm9udC1zaXplPSIxMyIgbGVuZ3RoQWRqdXN0PSJzcGFjaW5nIiB0ZXh0TGVuZ3RoPSI3IiB4PSI2MDIuNzQwNiIgeT0iNDU0LjM3NTUiPjE8L3RleHQ+PHRleHQgZmlsbD0iIzAwMDAwMCIgZm9udC1mYW1pbHk9InNhbnMtc2VyaWYiIGZvbnQtc2l6ZT0iMTMiIGxlbmd0aEFkanVzdD0ic3BhY2luZyIgdGV4dExlbmd0aD0iMTMiIHg9IjU4NC41NTk0IiB5PSIxNTguMDMxNiI+JiMxMDAzMzs8L3RleHQ+PC9nPjwhLS1saW5rIFN0dWRlbnQgdG8gQXNzZXNzbWVudC0tPjxnIGlkPSJsaW5rX1N0dWRlbnRfQXNzZXNzbWVudCI+PHBhdGggY29kZUxpbmU9IjIzMSIgZD0iTTU4OC4yMSw0MCBDNDIyLjcsNDAgODEsNDAgODEsNDAgQzgxLDQwIDgxLDY1Ni4wOCA4MSw5MDUuNzYgIiBmaWxsPSJub25lIiBpZD0iU3R1ZGVudC1Bc3Nlc3NtZW50IiBzdHlsZT0ic3Ryb2tlOiMwMDAwMDA7c3Ryb2tlLXdpZHRoOjEuMDsiLz48dGV4dCBmaWxsPSIjMDAwMDAwIiBmb250LWZhbWlseT0ic2Fucy1zZXJpZiIgZm9udC1zaXplPSIxMyIgbGVuZ3RoQWRqdXN0PSJzcGFjaW5nIiB0ZXh0TGVuZ3RoPSI0NiIgeD0iMzQiIHk9IjIxNy41NjkxIj5zdWJtaXRzPC90ZXh0Pjx0ZXh0IGZpbGw9IiMwMDAwMDAiIGZvbnQtZmFtaWx5PSJzYW5zLXNlcmlmIiBmb250LXNpemU9IjEzIiBsZW5ndGhBZGp1c3Q9InNwYWNpbmciIHRleHRMZW5ndGg9IjEzIiB4PSI1NjcuNDAxNiIgeT0iMzYuMTAxOCI+JiMxMDAzMzs8L3RleHQ+PHRleHQgZmlsbD0iIzAwMDAwMCIgZm9udC1mYW1pbHk9InNhbnMtc2VyaWYiIGZvbnQtc2l6ZT0iMTMiIGxlbmd0aEFkanVzdD0ic3BhY2luZyIgdGV4dExlbmd0aD0iMTMiIHg9IjY3LjQ4MiIgeT0iODk2LjM0OCI+JiMxMDAzMzs8L3RleHQ+PC9nPjwhLS1saW5rIFN0dWRlbnQgdG8gRXhhbS0tPjxnIGlkPSJsaW5rX1N0dWRlbnRfRXhhbSI+PHBhdGggY29kZUxpbmU9IjIzMiIgZD0iTTc0Ni4yNSwxMzguMjkgQzc0Ni4yNSwxNTYuODcgNzQ2LjI1LDE3Ny41NyA3NDYuMjUsMTk3Ljc5ICIgZmlsbD0ibm9uZSIgaWQ9IlN0dWRlbnQtRXhhbSIgc3R5bGU9InN0cm9rZTojMDAwMDAwO3N0cm9rZS13aWR0aDoxLjA7Ii8+PHRleHQgZmlsbD0iIzAwMDAwMCIgZm9udC1mYW1pbHk9InNhbnMtc2VyaWYiIGZvbnQtc2l6ZT0iMTMiIGxlbmd0aEFkanVzdD0ic3BhY2luZyIgdGV4dExlbmd0aD0iMzQiIHg9IjcxMS4yNSIgeT0iMTY2LjMyOTEiPnRha2VzPC90ZXh0Pjx0ZXh0IGZpbGw9IiMwMDAwMDAiIGZvbnQtZmFtaWx5PSJzYW5zLXNlcmlmIiBmb250LXNpemU9IjEzIiBsZW5ndGhBZGp1c3Q9InNwYWNpbmciIHRleHRMZW5ndGg9IjEzIiB4PSI3MzkuODI0MiIgeT0iMTU4LjA4NjciPiYjMTAwMzM7PC90ZXh0Pjx0ZXh0IGZpbGw9IiMwMDAwMDAiIGZvbnQtZmFtaWx5PSJzYW5zLXNlcmlmIiBmb250LXNpemU9IjEzIiBsZW5ndGhBZGp1c3Q9InNwYWNpbmciIHRleHRMZW5ndGg9IjEzIiB4PSI3MjguNTI4NSIgeT0iMTg4LjM4MDQiPiYjMTAwMzM7PC90ZXh0PjwvZz48IS0tbGluayBTdHVkZW50IHRvIFRpbWVUYWJsZS0tPjxnIGlkPSJsaW5rX1N0dWRlbnRfVGltZVRhYmxlIj48cGF0aCBjb2RlTGluZT0iMjMzIiBkPSJNNTg4LjM0LDczIEM0NjEuMSw3MyAyNDAuMjUsNzMgMjQwLjI1LDczIEMyNDAuMjUsNzMgMjQwLjI1LDkzNC4yNCAyNDAuMjUsMTE5NC4xMyAiIGZpbGw9Im5vbmUiIGlkPSJTdHVkZW50LVRpbWVUYWJsZSIgc3R5bGU9InN0cm9rZTojMDAwMDAwO3N0cm9rZS13aWR0aDoxLjA7Ii8+PHRleHQgZmlsbD0iIzAwMDAwMCIgZm9udC1mYW1pbHk9InNhbnMtc2VyaWYiIGZvbnQtc2l6ZT0iMTMiIGxlbmd0aEFkanVzdD0ic3BhY2luZyIgdGV4dExlbmd0aD0iNDUiIHg9IjE5NC4yNSIgeT0iNDU3LjgwOTEiPmZvbGxvd3M8L3RleHQ+PHRleHQgZmlsbD0iIzAwMDAwMCIgZm9udC1mYW1pbHk9InNhbnMtc2VyaWYiIGZvbnQtc2l6ZT0iMTMiIGxlbmd0aEFkanVzdD0ic3BhY2luZyIgdGV4dExlbmd0aD0iMTMiIHg9IjU2Ny41NDI0IiB5PSI3MS44MzQ2Ij4mIzEwMDMzOzwvdGV4dD48dGV4dCBmaWxsPSIjMDAwMDAwIiBmb250LWZhbWlseT0ic2Fucy1zZXJpZiIgZm9udC1zaXplPSIxMyIgbGVuZ3RoQWRqdXN0PSJzcGFjaW5nIiB0ZXh0TGVuZ3RoPSI3IiB4PSIyMjguODQ3NyIgeT0iMTE4NC43NDAxIj4xPC90ZXh0PjwvZz48IS0tbGluayBUZWFjaGVyIHRvIFN0dWRlbnQtLT48ZyBpZD0ibGlua19UZWFjaGVyX1N0dWRlbnQiPjxwYXRoIGNvZGVMaW5lPSIyMzQiIGQ9Ik02NzUuNzUsNjk5LjY5IEM2NzUuNzUsNTYyLjUxIDY3NS43NSwyNjkuMDggNjc1Ljc1LDEzOC4wNSAiIGZpbGw9Im5vbmUiIGlkPSJUZWFjaGVyLVN0dWRlbnQiIHN0eWxlPSJzdHJva2U6IzAwMDAwMDtzdHJva2Utd2lkdGg6MS4wOyIvPjx0ZXh0IGZpbGw9IiMwMDAwMDAiIGZvbnQtZmFtaWx5PSJzYW5zLXNlcmlmIiBmb250LXNpemU9IjEzIiBsZW5ndGhBZGp1c3Q9InNwYWNpbmciIHRleHRMZW5ndGg9IjQ4IiB4PSI2MjYuNzUiIHk9IjQxNy4xNTkxIj50ZWFjaGVzPC90ZXh0Pjx0ZXh0IGZpbGw9IiMwMDAwMDAiIGZvbnQtZmFtaWx5PSJzYW5zLXNlcmlmIiBmb250LXNpemU9IjEzIiBsZW5ndGhBZGp1c3Q9InNwYWNpbmciIHRleHRMZW5ndGg9IjMyIiB4PSI2NDIuOTU3IiB5PSI2OTAuMzA2NyI+MS4uJiMxMDAzMzs8L3RleHQ+PHRleHQgZmlsbD0iIzAwMDAwMCIgZm9udC1mYW1pbHk9InNhbnMtc2VyaWYiIGZvbnQtc2l6ZT0iMTMiIGxlbmd0aEFkanVzdD0ic3BhY2luZyIgdGV4dExlbmd0aD0iMTMiIHg9IjY2Mi4wMTE3IiB5PSIxNTguMjc1NSI+JiMxMDAzMzs8L3RleHQ+PC9nPjwhLS1saW5rIFRlYWNoZXIgdG8gVGltZVRhYmxlLS0+PGcgaWQ9ImxpbmtfVGVhY2hlcl9UaW1lVGFibGUiPjxwYXRoIGNvZGVMaW5lPSIyMzUiIGQ9Ik01ODguNTUsNzMwIEM0NzQuNjYsNzMwIDI3Nyw3MzAgMjc3LDczMCBDMjc3LDczMCAyNzcsMTA0Ny40OSAyNzcsMTE5NC40NSAiIGZpbGw9Im5vbmUiIGlkPSJUZWFjaGVyLVRpbWVUYWJsZSIgc3R5bGU9InN0cm9rZTojMDAwMDAwO3N0cm9rZS13aWR0aDoxLjA7Ii8+PHRleHQgZmlsbD0iIzAwMDAwMCIgZm9udC1mYW1pbHk9InNhbnMtc2VyaWYiIGZvbnQtc2l6ZT0iMTMiIGxlbmd0aEFkanVzdD0ic3BhY2luZyIgdGV4dExlbmd0aD0iNjIiIHg9IjIxNCIgeT0iODA0LjczOTEiPnNjaGVkdWxlczwvdGV4dD48dGV4dCBmaWxsPSIjMDAwMDAwIiBmb250LWZhbWlseT0ic2Fucy1zZXJpZiIgZm9udC1zaXplPSIxMyIgbGVuZ3RoQWRqdXN0PSJzcGFjaW5nIiB0ZXh0TGVuZ3RoPSIxMyIgeD0iNTY3Ljk4NDEiIHk9IjcyNC45MjY3Ij4mIzEwMDMzOzwvdGV4dD48dGV4dCBmaWxsPSIjMDAwMDAwIiBmb250LWZhbWlseT0ic2Fucy1zZXJpZiIgZm9udC1zaXplPSIxMyIgbGVuZ3RoQWRqdXN0PSJzcGFjaW5nIiB0ZXh0TGVuZ3RoPSIxMyIgeD0iMjYzLjI4OTEiIHk9IjExODUuMDk1MSI+JiMxMDAzMzs8L3RleHQ+PC9nPjwhLS1saW5rIFRlYWNoZXIgdG8gQXNzZXNzbWVudC0tPjxnIGlkPSJsaW5rX1RlYWNoZXJfQXNzZXNzbWVudCI+PHBhdGggY29kZUxpbmU9IjIzNiIgZD0iTTYyMC4yLDg0Ni40NCBDNjIwLjIsODg4LjUxIDYyMC4yLDkzMyA2MjAuMiw5MzMgQzYyMC4yLDkzMyAzMDIuOTIsOTMzIDE1NS4xMiw5MzMgIiBmaWxsPSJub25lIiBpZD0iVGVhY2hlci1Bc3Nlc3NtZW50IiBzdHlsZT0ic3Ryb2tlOiMwMDAwMDA7c3Ryb2tlLXdpZHRoOjEuMDsiLz48dGV4dCBmaWxsPSIjMDAwMDAwIiBmb250LWZhbWlseT0ic2Fucy1zZXJpZiIgZm9udC1zaXplPSIxMyIgbGVuZ3RoQWRqdXN0PSJzcGFjaW5nIiB0ZXh0TGVuZ3RoPSI0OCIgeD0iMzgxLjk0IiB5PSI5MzEuMjg5MSI+Y3JlYXRlczwvdGV4dD48dGV4dCBmaWxsPSIjMDAwMDAwIiBmb250LWZhbWlseT0ic2Fucy1zZXJpZiIgZm9udC1zaXplPSIxMyIgbGVuZ3RoQWRqdXN0PSJzcGFjaW5nIiB0ZXh0TGVuZ3RoPSI3IiB4PSI2MDguNTYzIiB5PSI4NjYuMTQ2NCI+MTwvdGV4dD48dGV4dCBmaWxsPSIjMDAwMDAwIiBmb250LWZhbWlseT0ic2Fucy1zZXJpZiIgZm9udC1zaXplPSIxMyIgbGVuZ3RoQWRqdXN0PSJzcGFjaW5nIiB0ZXh0TGVuZ3RoPSIxMyIgeD0iMTYzLjA1NiIgeT0iOTI0LjIyMjIiPiYjMTAwMzM7PC90ZXh0PjwvZz48IS0tbGluayBUZWFjaGVyIHRvIFNlc3Npb24tLT48ZyBpZD0ibGlua19UZWFjaGVyX1Nlc3Npb24iPjxwYXRoIGNvZGVMaW5lPSIyMzciIGQ9Ik01ODguOCw3NTkgQzUwNS43Miw3NTkgMzg2LjI1LDc1OSAzODYuMjUsNzU5IEMzODYuMjUsNzU5IDM4Ni4yNSwxMjMwLjAzIDM4Ni4yNSwxNDIyLjc2ICIgZmlsbD0ibm9uZSIgaWQ9IlRlYWNoZXItU2Vzc2lvbiIgc3R5bGU9InN0cm9rZTojMDAwMDAwO3N0cm9rZS13aWR0aDoxLjA7Ii8+PHRleHQgZmlsbD0iIzAwMDAwMCIgZm9udC1mYW1pbHk9InNhbnMtc2VyaWYiIGZvbnQtc2l6ZT0iMTMiIGxlbmd0aEFkanVzdD0ic3BhY2luZyIgdGV4dExlbmd0aD0iNDgiIHg9IjMzNy4yNSIgeT0iOTg3Ljg5OTEiPnRlYWNoZXM8L3RleHQ+PHRleHQgZmlsbD0iIzAwMDAwMCIgZm9udC1mYW1pbHk9InNhbnMtc2VyaWYiIGZvbnQtc2l6ZT0iMTMiIGxlbmd0aEFkanVzdD0ic3BhY2luZyIgdGV4dExlbmd0aD0iNyIgeD0iNTc0LjAxMyIgeT0iNzU2LjM4NDciPjE8L3RleHQ+PHRleHQgZmlsbD0iIzAwMDAwMCIgZm9udC1mYW1pbHk9InNhbnMtc2VyaWYiIGZvbnQtc2l6ZT0iMTMiIGxlbmd0aEFkanVzdD0ic3BhY2luZyIgdGV4dExlbmd0aD0iMTMiIHg9IjM3NS4zODk4IiB5PSIxNDEzLjEwNjgiPiYjMTAwMzM7PC90ZXh0PjwvZz48IS0tbGluayBUZWFjaGVyIHRvIEV4YW0tLT48ZyBpZD0ibGlua19UZWFjaGVyX0V4YW0iPjxwYXRoIGNvZGVMaW5lPSIyMzgiIGQ9Ik03MzkuNjcsNjk5Ljc3IEM3MzkuNjcsNjIwLjUzIDczOS42Nyw0OTMuNTcgNzM5LjY3LDQwNC4yMyAiIGZpbGw9Im5vbmUiIGlkPSJUZWFjaGVyLUV4YW0iIHN0eWxlPSJzdHJva2U6IzAwMDAwMDtzdHJva2Utd2lkdGg6MS4wOyIvPjx0ZXh0IGZpbGw9IiMwMDAwMDAiIGZvbnQtZmFtaWx5PSJzYW5zLXNlcmlmIiBmb250LXNpemU9IjEzIiBsZW5ndGhBZGp1c3Q9InNwYWNpbmciIHRleHRMZW5ndGg9IjU1IiB4PSI2ODMuNjciIHk9IjU1MC4yODkxIj5jb25kdWN0czwvdGV4dD48dGV4dCBmaWxsPSIjMDAwMDAwIiBmb250LWZhbWlseT0ic2Fucy1zZXJpZiIgZm9udC1zaXplPSIxMyIgbGVuZ3RoQWRqdXN0PSJzcGFjaW5nIiB0ZXh0TGVuZ3RoPSI3IiB4PSI3NDAuMjM1NSIgeT0iNjkwLjM5NTQiPjE8L3RleHQ+PHRleHQgZmlsbD0iIzAwMDAwMCIgZm9udC1mYW1pbHk9InNhbnMtc2VyaWYiIGZvbnQtc2l6ZT0iMTMiIGxlbmd0aEFkanVzdD0ic3BhY2luZyIgdGV4dExlbmd0aD0iMTMiIHg9IjcyMi4wNDEzIiB5PSI0MjQuMjczMiI+JiMxMDAzMzs8L3RleHQ+PC9nPjwhLS1saW5rIFNlY3Rpb25hbEhlYWQgdG8gVGltZVRhYmxlLS0+PGcgaWQ9ImxpbmtfU2VjdGlvbmFsSGVhZF9UaW1lVGFibGUiPjxwYXRoIGNvZGVMaW5lPSIyNDAiIGQ9Ik01NzkuMjMsMTAwOSBDNDc0LjYxLDEwMDkgMzEzLjc1LDEwMDkgMzEzLjc1LDEwMDkgQzMxMy43NSwxMDA5IDMxMy43NSwxMTE4LjAyIDMxMy43NSwxMTk0LjQ2ICIgZmlsbD0ibm9uZSIgaWQ9IlNlY3Rpb25hbEhlYWQtVGltZVRhYmxlIiBzdHlsZT0ic3Ryb2tlOiMwMDAwMDA7c3Ryb2tlLXdpZHRoOjEuMDsiLz48dGV4dCBmaWxsPSIjMDAwMDAwIiBmb250LWZhbWlseT0ic2Fucy1zZXJpZiIgZm9udC1zaXplPSIxMyIgbGVuZ3RoQWRqdXN0PSJzcGFjaW5nIiB0ZXh0TGVuZ3RoPSI0OCIgeD0iMzA0Ljc2IiB5PSIxMDA3LjI4OTEiPm1hbmFnZXM8L3RleHQ+PHRleHQgZmlsbD0iIzAwMDAwMCIgZm9udC1mYW1pbHk9InNhbnMtc2VyaWYiIGZvbnQtc2l6ZT0iMTMiIGxlbmd0aEFkanVzdD0ic3BhY2luZyIgdGV4dExlbmd0aD0iNyIgeD0iNTY0LjM4NjUiIHk9IjEwMDcuNzczOCI+MTwvdGV4dD48dGV4dCBmaWxsPSIjMDAwMDAwIiBmb250LWZhbWlseT0ic2Fucy1zZXJpZiIgZm9udC1zaXplPSIxMyIgbGVuZ3RoQWRqdXN0PSJzcGFjaW5nIiB0ZXh0TGVuZ3RoPSIxMyIgeD0iMzA0LjA1ODYiIHk9IjExODUuMTA2MiI+JiMxMDAzMzs8L3RleHQ+PC9nPjwhLS1saW5rIEV4YW0gdG8gQ2xhc3MtLT48ZyBpZD0ibGlua19FeGFtX0NsYXNzIj48cGF0aCBjb2RlTGluZT0iMjQzIiBkPSJNNzM0LjMzLDQwNC4xOCBDNzM0LjMzLDQ3My40MSA3MzQuMzMsNTUyIDczNC4zMyw1NTIgQzczNC4zMyw1NTIgNjczLjMxLDU1MiA2MjIuNjYsNTUyICIgZmlsbD0ibm9uZSIgaWQ9IkV4YW0tQ2xhc3MiIHN0eWxlPSJzdHJva2U6IzAwMDAwMDtzdHJva2Utd2lkdGg6MS4wOyIvPjx0ZXh0IGZpbGw9IiMwMDAwMDAiIGZvbnQtZmFtaWx5PSJzYW5zLXNlcmlmIiBmb250LXNpemU9IjEzIiBsZW5ndGhBZGp1c3Q9InNwYWNpbmciIHRleHRMZW5ndGg9IjY4IiB4PSI2NjUuMzMiIHk9IjUzMi4yMTkxIj5hc3NpZ25lZFRvPC90ZXh0Pjx0ZXh0IGZpbGw9IiMwMDAwMDAiIGZvbnQtZmFtaWx5PSJzYW5zLXNlcmlmIiBmb250LXNpemU9IjEzIiBsZW5ndGhBZGp1c3Q9InNwYWNpbmciIHRleHRMZW5ndGg9IjEzIiB4PSI3MzAuMjM5OSIgeT0iNDI0LjIxOTciPiYjMTAwMzM7PC90ZXh0Pjx0ZXh0IGZpbGw9IiMwMDAwMDAiIGZvbnQtZmFtaWx5PSJzYW5zLXNlcmlmIiBmb250LXNpemU9IjEzIiBsZW5ndGhBZGp1c3Q9InNwYWNpbmciIHRleHRMZW5ndGg9IjEzIiB4PSI2MzAuNjYxOSIgeT0iNTUwLjYzNjciPiYjMTAwMzM7PC90ZXh0PjwvZz48IS0tbGluayBUaW1lVGFibGUgdG8gQ2xhc3MtLT48ZyBpZD0ibGlua19UaW1lVGFibGVfQ2xhc3MiPjxwYXRoIGNvZGVMaW5lPSIyNDQiIGQ9Ik0zNTAuNywxMjY4IEM0MjQuMTIsMTI2OCA1MjYsMTI2OCA1MjYsMTI2OCBDNTI2LDEyNjggNTI2LDgzMS41MyA1MjYsNjQwLjE1ICIgZmlsbD0ibm9uZSIgaWQ9IlRpbWVUYWJsZS1DbGFzcyIgc3R5bGU9InN0cm9rZTojMDAwMDAwO3N0cm9rZS13aWR0aDoxLjA7Ii8+PHRleHQgZmlsbD0iIzAwMDAwMCIgZm9udC1mYW1pbHk9InNhbnMtc2VyaWYiIGZvbnQtc2l6ZT0iMTMiIGxlbmd0aEFkanVzdD0ic3BhY2luZyIgdGV4dExlbmd0aD0iNjgiIHg9IjQ1NyIgeT0iMTA0MC4wMTkxIj5hc3NpZ25lZFRvPC90ZXh0Pjx0ZXh0IGZpbGw9IiMwMDAwMDAiIGZvbnQtZmFtaWx5PSJzYW5zLXNlcmlmIiBmb250LXNpemU9IjEzIiBsZW5ndGhBZGp1c3Q9InNwYWNpbmciIHRleHRMZW5ndGg9IjciIHg9IjM1OC42NjEzIiB5PSIxMjY2LjcyMzkiPjE8L3RleHQ+PHRleHQgZmlsbD0iIzAwMDAwMCIgZm9udC1mYW1pbHk9InNhbnMtc2VyaWYiIGZvbnQtc2l6ZT0iMTMiIGxlbmd0aEFkanVzdD0ic3BhY2luZyIgdGV4dExlbmd0aD0iNyIgeD0iNTE2LjMzMDUiIHk9IjY2MC4wMjQxIj4xPC90ZXh0PjwvZz48IS0tU1JDPVtWTFRCU1hpdDREdEZBUVJlWEhFZHc4Z3RnY21PbktmU2ZRSEtiZDgwNDZZSWkzMjNDTzJYbVlJLUlJd0hBX2FhUVZtX0N1bk1IN1VaeVZodGZsTXdsb1NORVBqVVdwNXlGRWZFRl9EbjhlZUNfSnFWbUxtY3dBS285cmFlZzIxUXh1bkhWM3lSLTQzYi1DWl9YRnh4eGlHUHo5R2hBZzNoTmxVRnZZOVdwUkRwcUZfTHpWWDdmUDJndG1qMmR6dHZIX25uTDc4VXNRdEpsOW91MFEtSFllNndSVW50SWljTktsWWJ3eHBfbnRkXzJRVzl4eHBnSHA5MC00YWJZcHlQUUFodVBCV1NFb1Z3aFlVQ1hSbFZWMWo0eXlJOFdMUkFHNDBmblFWOU5YajV5NU1GdU5TREFXN1dCRm11U0FORFJuYUVjZlA3NjBXTnVWVHFhY0VLOG91NU1lVUpmWVNmbkdUTS1CWU5IcHg2bl9JRTZkd0VUc1M0S1lIV0dkMGxjQ3k0UTNvMmNYR1ZaUEU0LThKcmJ3QjU0dFBBRWZ2MXlTRmJCanppYWxNV3Y4NEJJNTl3OGNadzQxeHNzR2c1Q1pFM0NIUGdzc2pfM2c1alVuWUw1NjkwcUt5YXo0Qm1nVVZ6bUNyRVFxb0JyTVRtNzV3b001Vm96dC1HOEtsOEQ4ZEJkTEdWV0tnYmk4eE8yMk11OW8zcUwxSkgtN0ZBLW9WOUh5bjFHbFFnX3BtSm1HLVM0alRKMVRnMVpFRzhReDJ5ZldQc0w4SlB0WGd1cmtZZUtDMDgyZl94MjFERWZndW93VjRKeUdpR2JZMWhCeE1vMTNsOG1oYzI0STlrcUp0bjBQeDhsZ1dlZmF4OUN6bTNFSUVPcHBGZTZpcTNUV05iNG40OW9IR2IyR1Z3bTBJUWpVQmtiSUlDT2JsbG5YN3ZXNDlMT0dNc2JaYTc1UUp0dnZOcUZYZm9FM0p0N3EwVGY0OHpYS0wtN3pzMC1IVU1Ja2xpWWd2bWNZbklLZFBpdTZEZ1RNOUZnVDQ5ZlRXUXp0MDZpSW9CZlA4UzRmQmtXSHpkMU95TlJNMTh5WnJJdTNuWEFpYUlpaERpQy1RVDgtSDVkcjQ1VUNsWHRMNkE1UVpZazJxdVYxa2ZSUGo5VGtpUkU4d3FSeFNvQWNHcHZ3RVhaTGhjNlJRTXVNei03NEVORGo5MDlMS1J2ZTVSbVpOU1k4WW5fMTg0b0dvZkFUNU02WTktOVVmUG53MHl5U1ZZRUczMGRjR1BQS1pZYWc1eWoyaUE3X0FBOGlHanJzQXFyQjZDeFc5NEhWMU91MVhMM2VkRFlYSm51WG1oUjhPU09uTTRWUUUxTnVheXk0ZUs4UmkybVhnNXdMYWk4XzdZUEpuM2FWb29rbklLNmpSbTIyTTJwV0E1RnppaExzWXEyU21aUTQ5aFhERXk1cm9WYVpIX0NZOUpCWUN1dXdVMXRJYXZiRVVyWmE3bzBKT05QMWlzYTVPU0xmMU14RnBNemlMN21XdHc0Zm1zSDFhQkZkcnRNTjVZdkI4MnFfamdLSlJJMEJBSEhlcHNaTWZVWlM2TkJOaWs4SFF6WXNaRGQ0UkgtcXZDTWRQNDhaaHJkNXN0U3hYS2ZCUjlFY0g5WWZFNzh4QmVlY29xZjduU292T3g4Q2M0WTRpNWZXM1o2UVFxYjFmUzBVRWNud1RUc0ZvLXNCTndtdVl5bnVyQmEwQlgxYllWLUFHeGpzdC15RlRzNnJVZ0dYQnVpZjJhcHRDWFNzcFZuUHQ3a29mdFlneFVDMWVfLU9EVkU0RjRqdEFPZkVPRXcxaGFwUmpEX21PbFJCeC15LV82ZllpWGczTFhxLXhvVzNMd3RtTVRPeURRYk1kNTBqZVRabWdFUDByR2QwdnhOVGhoeHpBeF9Lcl84aGVobFlWTlpIQTRUTkxTVVBFNTB2Y1J3OGYxVGM5dFAweE43MUthd2p5aHl4ZGNwYy1yci1tZ1R1MXBFc0Y3TnBDa25sU2NDQlJWNUpQbERkc29Za3FPTDNNaXFCb3NLNWZadXhab2o3TUFXUmloLVZMU2Q5bG14eTVMTXJTWlo5cXltdmVET2lnRFRqQ1Z5N3lHLUw5Nl9WUGp4SS13TTRiZFJMWXdyTzZYd3RJa24tQ3Z6dWZiUkRwck9oUDF1X3g4UGNmcEttcnFQSGhsc3FIRWVDdlNtX19SNXM3dmpMOE5iRDIwQlJyYVN4eVRMd1FFOFJBNTd3bXdkeHc5UmllTGhBUThLQ3didE55MF0tLT48L2c+PC9zdmc+;" vertex="1" parent="1">
            <mxGeometry x="-3308" y="-3507" width="1346" height="2122" as="geometry" />
          </mxCell>
        </UserObject>
      </root>
    </mxGraphModel>
  </diagram>
</mxfile>
